<?xml version="1.0" encoding="UTF-8" standalone="no"?>
<svg
   xmlns:dc="http://purl.org/dc/elements/1.1/"
   xmlns:cc="http://creativecommons.org/ns#"
   xmlns:rdf="http://www.w3.org/1999/02/22-rdf-syntax-ns#"
   xmlns:svg="http://www.w3.org/2000/svg"
   xmlns="http://www.w3.org/2000/svg"
   xmlns:sodipodi="http://sodipodi.sourceforge.net/DTD/sodipodi-0.dtd"
   xmlns:inkscape="http://www.inkscape.org/namespaces/inkscape"
   width="154.97675mm"
   height="169.40678mm"
   viewBox="0 0 154.97675 169.40679"
   version="1.1"
   id="svg8"
   sodipodi:docname="log.svg"
   inkscape:version="1.0.2-2 (e86c870879, 2021-01-15)">
  <defs
     id="defs2">
    <inkscape:perspective
       sodipodi:type="inkscape:persp3d"
       inkscape:vp_x="0 : 84.703395 : 1"
       inkscape:vp_y="0 : 1000 : 0"
       inkscape:vp_z="154.97675 : 84.703395 : 1"
       inkscape:persp3d-origin="77.488375 : 56.46893 : 1"
       id="perspective60" />
  </defs>
  <sodipodi:namedview
     id="base"
     pagecolor="#ffffff"
     bordercolor="#666666"
     borderopacity="1.0"
     inkscape:pageopacity="0.0"
     inkscape:pageshadow="2"
     inkscape:zoom="0.49497475"
     inkscape:cx="208.93508"
     inkscape:cy="386.88374"
     inkscape:document-units="mm"
     inkscape:current-layer="layer1"
     inkscape:document-rotation="0"
     showgrid="false"
     inkscape:window-width="1366"
     inkscape:window-height="697"
     inkscape:window-x="-8"
     inkscape:window-y="-8"
     inkscape:window-maximized="1"
     fit-margin-top="0"
     fit-margin-left="0"
     fit-margin-right="0"
     fit-margin-bottom="0"
     inkscape:lockguides="true" />
  <metadata
     id="metadata5">
    <rdf:RDF>
      <cc:Work
         rdf:about="">
        <dc:format>image/svg+xml</dc:format>
        <dc:type
           rdf:resource="http://purl.org/dc/dcmitype/StillImage" />
        <dc:title></dc:title>
      </cc:Work>
    </rdf:RDF>
  </metadata>
  <g
     inkscape:label="Layer 1"
     inkscape:groupmode="layer"
     id="layer1"
     style="display:inline;opacity:1"
     transform="translate(-26.080361,-38.514163)">
    <path
       style="fill:#ff0000;stroke-width:0.264583"
       d="m 85.611611,207.75398 c 0,-0.0731 2.11336,-4.35894 4.69635,-9.52407 l 4.69636,-9.39114 0.87551,-0.001 c 0.48153,-5.3e-4 0.80663,0.11051 0.72246,0.24671 -0.19476,0.31513 0.062,1.38417 1.43404,5.97007 0.60953,2.03729 1.44994,4.89479 1.86759,6.35 0.417649,1.45521 1.004139,3.40548 1.303319,4.33394 0.67649,2.09945 0.67529,2.20471 -0.024,2.10061 -0.50089,-0.0746 -0.81327,-0.91246 -2.645499,-7.09601 -1.14265,-3.8563 -2.26475,-7.63654 -2.49354,-8.40052 -0.22879,-0.76399 -0.49832,-1.38906 -0.59895,-1.38906 -0.10064,0 -2.085,3.81 -4.40969,8.46666 -3.68038,7.37227 -4.3041,8.46667 -4.82534,8.46667 -0.32924,1.2e-4 -0.59862,-0.0597 -0.59862,-0.1328 z m 2.11666,0.0202 c 0,-0.34987 7.55428,-15.23315 7.73187,-15.23315 0.10755,0 0.26415,0.27333 0.348,0.60739 0.11121,0.4431 -0.80035,2.50061 -3.37012,7.60677 -2.89246,5.74735 -3.62874,7.0145 -4.11615,7.08393 -0.32648,0.0465 -0.5936,0.0173 -0.5936,-0.0649 z m 2.11667,-0.0749 c 0,-0.37099 6.19579,-12.51246 6.38512,-12.51246 0.10659,0 0.26647,0.22895 0.35528,0.50877 0.10852,0.34192 -0.79712,2.42445 -2.76144,6.35 -2.34394,4.68417 -3.02752,5.84123 -3.45094,5.84123 -0.29041,0 -0.52802,-0.0844 -0.52802,-0.18754 z m 4.36131,-4.8035 c 1.37967,-2.76436 2.61605,-5.09259 2.7475,-5.17383 0.13146,-0.0813 0.30066,0.17475 0.376,0.56887 0.10296,0.53862 -0.40549,1.80283 -2.04717,5.09015 -1.93015,3.86495 -2.26559,4.38329 -2.88448,4.45724 -0.68185,0.0815 -0.63412,-0.049 1.80815,-4.94243 z m -0.50076,4.76543 c -0.0767,-0.12408 0.006,-0.40087 0.18282,-0.61509 0.27305,-0.33002 0.77499,-0.34948 3.28733,-0.12745 2.03188,0.17957 3.007709,0.37316 3.100549,0.61509 0.10846,0.28266 -0.519179,0.35306 -3.147899,0.35306 -1.80585,0 -3.34611,-0.10153 -3.4228,-0.22561 z m 8.508319,-1.03116 c -3.443889,-11.66849 -5.096949,-16.9464 -5.273469,-16.8373 -0.38229,0.23627 -0.23032,-0.37488 0.2003,-0.8055 0.37899,-0.37899 0.37303,-0.43011 -0.0661,-0.56715 -0.89109,-0.27807 -1.27463,-0.55771 -1.57382,-1.14748 -0.16357,-0.32242 -0.60263,-0.90604 -0.97569,-1.29694 -0.37306,-0.39091 -1.14787,-1.66323 -1.72181,-2.8274 -1.77259,-3.59548 -1.90434,-5.29049 -1.60414,-20.6375 0.49407,-25.25827 1.0051,-41.17699 1.7136,-53.37969 0.15399,-2.65224 0.13193,-2.8452 -0.3268,-2.85814 -0.43851,-0.0124 -0.42729,-0.059 0.10338,-0.42915 0.33405,-0.23302 0.59531,-0.6914 0.59531,-1.04446 0,-0.34605 0.10368,-0.62918 0.2304,-0.62918 0.12671,0 0.31205,-0.82866 0.41184,-1.84145 0.0998,-1.0128 0.34708,-2.17365 0.54951,-2.579686 0.57841,-1.160153 0.12822,-6.116288 -0.72796,-8.014282 -0.64624,-1.432571 -2.95248,-4.673137 -4.8016,-6.746875 -0.51904,-0.582083 -0.94599,-1.266693 -0.94878,-1.521354 -0.003,-0.254662 -0.10867,-0.463021 -0.23527,-0.463021 -0.12661,0 -0.37659,-0.522838 -0.5555,-1.161859 -0.29474,-1.05268 -0.26718,-1.28855 0.29317,-2.510012 0.49004,-1.068182 0.82519,-1.430862 1.61384,-1.746414 0.9366,-0.374759 0.99535,-0.466014 0.99535,-1.546188 0,-0.700501 0.25763,-1.655257 0.66098,-2.449539 0.36354,-0.715886 0.79652,-1.718331 0.96216,-2.227654 0.41604,-1.2792 1.48181,-3.365058 1.82902,-3.579646 0.52072,-0.321826 0.56266,0.07725 0.10177,0.968505 -0.76919,1.487463 -0.61066,3.27258 0.47862,5.389266 1.73027,3.362269 3.8983,6.236906 5.62474,7.457977 1.347189,0.952836 1.787769,1.124177 2.910519,1.131892 1.32935,0.0091 4.6147,0.598559 5.13762,0.921748 0.17688,0.109312 0.21558,0.0048 0.10499,-0.283393 -0.13336,-0.347519 -0.0713,-0.416673 0.25995,-0.289568 0.54047,0.207397 1.27421,-0.482854 1.07238,-1.008814 -0.0821,-0.214069 -0.0175,-0.389218 0.14353,-0.389218 0.16109,0 0.29289,0.128191 0.29289,0.284869 0,0.156679 1.14475,-0.73629 2.54389,-1.984375 2.44526,-2.181269 2.59316,-2.269243 3.81482,-2.269243 0.69901,0 1.47814,-0.07952 1.7314,-0.1767 0.39489,-0.151535 0.43715,-0.06011 0.29673,0.641985 -0.45758,2.287889 -2.27543,4.69101 -4.18627,5.534073 -0.86514,0.381698 -0.94381,0.484383 -0.57672,0.752803 0.33828,0.247356 0.35452,0.354417 0.0795,0.524375 -0.24422,0.150934 -0.28204,0.110797 -0.12897,-0.136869 0.15929,-0.257736 0.0944,-0.303541 -0.24534,-0.173173 -0.25406,0.09749 -0.55474,0.177255 -0.66818,0.177255 -0.11343,0 -0.151,0.289013 -0.0835,0.642247 0.0866,0.45321 -0.041,0.744511 -0.43357,0.989688 -0.30599,0.19109 -0.55634,0.556924 -0.55634,0.812961 0,0.256037 -0.17156,0.465521 -0.38126,0.465521 -0.47926,0 -0.69407,0.34412 -0.85593,1.371142 -0.0702,0.445249 -0.3494,1.241624 -0.6205,1.769721 -0.57736,1.124681 -1.00209,2.788603 -0.54901,2.150804 0.17372,-0.244544 0.28349,-0.275926 0.28598,-0.08176 0.002,0.173313 -0.11501,0.388699 -0.26053,0.478637 -0.14552,0.08994 -0.26458,0.811339 -0.26458,1.603115 0,0.791776 -0.11764,1.439593 -0.26141,1.439593 -0.15549,0 -0.20867,0.562832 -0.13125,1.389062 0.23257,2.482004 0.65995,5.856484 0.91312,7.209894 0.13611,0.7276 0.3922,2.72656 0.5691,4.44212 0.186,1.80393 0.41142,2.97538 0.53458,2.77812 0.11712,-0.18759 0.14509,0.0815 0.0622,0.59799 -0.0829,0.51649 -0.0123,2.0643 0.15697,3.43958 0.35432,2.87889 0.44263,3.8826 0.66233,7.5276 0.0877,1.45521 0.27591,3.65787 0.41824,4.8948 0.14233,1.23692 0.30865,2.9038 0.36961,3.70416 0.32811,4.30807 0.49762,6.92633 0.54816,8.46667 0.031,0.94588 0.14934,2.43417 0.26291,3.30729 0.11356,0.87313 0.19903,1.82563 0.18994,2.11667 -0.014,0.44699 0.38205,6.05719 0.85912,12.17083 0.0681,0.87313 0.25118,3.43297 0.40676,5.68854 0.15559,2.25557 0.3994,5.41073 0.5418,7.01146 0.1424,1.60073 0.30969,3.71963 0.37176,4.70866 0.0621,0.98903 0.18186,2.01571 0.26622,2.2815 0.10103,0.31832 -0.16511,0.86446 -0.77982,1.60023 -1.02844,1.23095 -1.1293,1.46335 -0.53633,1.2358 0.21828,-0.0838 0.39687,-0.037 0.39687,0.10399 0,0.14095 -0.17859,0.25628 -0.39687,0.25628 -0.24439,0 -0.39688,0.24815 -0.39688,0.64584 0,0.35521 -0.11906,0.71943 -0.26458,0.80937 -0.14552,0.0899 -0.26459,0.39835 -0.26459,0.68537 0,0.28702 -0.17791,0.59013 -0.39535,0.67357 -0.21745,0.0834 -0.32403,0.26711 -0.23686,0.40816 0.0872,0.14104 -0.0784,0.51552 -0.36799,0.83217 -0.28956,0.31665 -0.60772,0.84362 -0.70701,1.17104 -0.0993,0.32742 -0.30527,0.59531 -0.45774,0.59531 -0.27492,0 -1.9245,1.67451 -2.1931,2.22626 -0.0945,0.19419 -0.18988,0.18011 -0.2942,-0.0435 -0.0849,-0.1819 -0.27806,-0.33073 -0.42927,-0.33073 -0.16097,0 -0.13255,0.17157 0.0686,0.41389 0.32259,0.3887 0.83918,0.38041 1.91039,-0.0307 0.34618,-0.13284 3.66169,3.77818 13.00209,15.33746 0.7153,0.88523 1.37015,1.66904 1.45521,1.7418 0.0851,0.0728 0.38146,0.40019 0.65868,0.72761 l 0.50403,0.59531 h -0.77729 c -0.67203,0 -1.11651,-0.41709 -3.28216,-3.07991 -1.37767,-1.69394 -2.6283,-3.21199 -2.77918,-3.37343 -0.15087,-0.16145 -1.6767,-2.01994 -3.39074,-4.12999 -1.71403,-2.11005 -3.61465,-4.4216 -4.2236,-5.13678 -0.60894,-0.71518 -1.26415,-1.52084 -1.45601,-1.79037 -0.38464,-0.54034 -0.96922,-0.38979 -0.64663,0.16654 0.22692,0.39132 -0.0557,0.0408 7.94078,9.84679 3.23784,3.9705 5.88698,7.28165 5.88698,7.35812 0,0.0765 -0.27055,0.13903 -0.60121,0.13903 -0.64844,0 -0.79426,-0.16323 -7.80022,-8.73125 -5.14851,-6.29643 -5.86416,-7.10215 -5.87516,-6.61458 -0.009,0.41041 0.67458,5.72547 1.52337,11.8401 l 0.48663,3.50573 h -0.57348 c -0.63762,0 -0.47914,0.82266 -1.86039,-9.65729 -0.70339,-5.33683 -1.12865,-7.80521 -1.34471,-7.80521 -0.0727,0 -0.32109,0.18888 -0.55195,0.41974 -0.23928,0.23927 -0.68617,0.3688 -1.03943,0.30127 -0.34084,-0.0651 -0.6197,-0.0291 -0.6197,0.08 0,0.24403 -0.87297,0.19529 -1.06532,-0.0595 -0.0766,-0.10146 -0.28331,-0.0954 -0.45936,0.0134 -0.34333,0.21219 -0.30283,0.36921 2.81892,10.93058 0.8889,3.00729 1.61617,5.54564 1.61617,5.6408 0,0.0952 -0.24779,0.13496 -0.55065,0.0885 -0.47951,-0.0736 -0.87471,-1.16126 -3.05905,-8.41892 -1.37963,-4.5839 -2.60668,-8.43404 -2.72678,-8.55586 -0.64196,-0.65113 -0.26312,0.97408 1.9944,8.55586 1.36489,4.58391 2.4835,8.36414 2.48581,8.40052 0.002,0.0364 -0.27479,0.0661 -0.61576,0.0661 -0.55235,0 -0.6844,-0.23802 -1.21103,-2.18281 -0.5561,-2.05364 -0.92501,-3.28938 -3.3371,-11.17865 -0.947229,-3.09813 -1.277979,-3.82859 -1.591579,-3.515 -0.14147,0.14148 0.66123,2.97745 3.709609,13.10615 l 1.13473,3.77031 h -0.60994 c -0.4992,0 -0.67729,-0.22818 -0.98087,-1.25677 z m 5.55114,-16.89475 c -0.0879,-0.0879 -0.31612,-0.0973 -0.50712,-0.0209 -0.21106,0.0845 -0.14837,0.14715 0.15986,0.15985 0.27891,0.0115 0.43518,-0.0511 0.34726,-0.13897 z m 1.39052,-1.52619 c 0.002,-0.12696 -0.17323,-0.0837 -0.38991,0.0961 -0.21667,0.17983 -0.32085,0.44524 -0.23151,0.58981 0.16398,0.26532 0.61344,-0.2308 0.62142,-0.68594 z M 108.3113,95.003992 c -0.0771,-0.363755 -0.14364,-0.297223 -0.25654,0.25654 -0.0984,0.482817 -0.0616,0.656791 0.1041,0.491125 0.1411,-0.141097 0.2097,-0.477547 0.15244,-0.747665 z m 0.31906,-3.004667 c 0,-0.145521 -0.0525,-0.264583 -0.11668,-0.264583 -0.0642,0 -0.19026,0.119062 -0.2802,0.264583 -0.0899,0.145521 -0.0374,0.264584 0.11668,0.264584 0.15411,0 0.2802,-0.119063 0.2802,-0.264584 z m 2.38125,-5.027083 c 0,-0.145521 -0.0525,-0.264583 -0.11668,-0.264583 -0.0642,0 -0.19026,0.119062 -0.2802,0.264583 -0.0899,0.145521 -0.0374,0.264583 0.11668,0.264583 0.15411,0 0.2802,-0.119062 0.2802,-0.264583 z m 1.51584,-2.541103 c -0.0879,-0.08792 -0.31612,-0.09732 -0.50712,-0.02088 -0.21106,0.08446 -0.14837,0.147156 0.15986,0.159851 0.27891,0.01148 0.43518,-0.05105 0.34726,-0.138965 z m -1.37794,121.802121 c -0.0982,-0.90951 -0.46713,-3.71128 -0.81973,-6.22615 -0.3526,-2.51488 -0.64109,-4.94195 -0.64109,-5.39349 v -0.821 l 0.54204,0.68909 c 0.54432,0.692 0.65707,1.29468 1.71575,9.17186 0.22492,1.67349 0.44726,3.3106 0.4941,3.63802 0.0668,0.46708 -0.0438,0.59531 -0.51364,0.59531 -0.53907,0 -0.61661,-0.16492 -0.77743,-1.65364 z m 1.97746,0.92604 c -8e-4,-0.40019 -0.29838,-2.79575 -0.66146,-5.32349 -0.36308,-2.52773 -0.65639,-4.73039 -0.65179,-4.89479 0.005,-0.1644 0.28865,0.0193 0.63124,0.40831 0.47786,0.54258 0.69432,1.25095 0.92976,3.04271 0.40633,3.09221 0.8084,5.86959 0.97968,6.76726 0.12242,0.64158 0.0581,0.7276 -0.54364,0.7276 -0.56782,0 -0.6827,-0.12224 -0.68379,-0.7276 z m 1.98933,0.13229 c -0.22356,-0.95931 -0.92969,-6.31419 -0.92969,-7.05017 0,-0.67328 7.9e-4,-0.67348 0.52702,-0.14717 0.38882,0.38882 0.6315,1.25417 0.92542,3.29994 0.21912,1.5251 0.46361,3.15987 0.5433,3.63282 0.12384,0.73489 0.067,0.85989 -0.39121,0.85989 -0.33848,0 -0.58726,-0.21946 -0.67484,-0.59531 z m 10.75728,-0.13229 c -1.64162,-2.05082 -9.51486,-11.67083 -11.86755,-14.50052 -2.44371,-2.93915 -2.64045,-3.25442 -2.11667,-3.39185 0.72584,-0.19045 0.58855,-0.33624 6.57159,6.9783 10.55804,12.90768 9.60626,11.64167 8.75218,11.64167 -0.50837,0 -0.94848,-0.23906 -1.33955,-0.7276 z m 1.52541,-1.05834 c -0.78765,-0.98226 -2.51286,-3.09562 -3.8338,-4.69635 -5.45185,-6.60661 -9.90775,-12.14483 -9.90775,-12.3143 0,-0.17345 1.3035,-0.12196 1.43234,0.0566 0.0345,0.0478 1.60155,1.98125 3.48237,4.2966 1.88082,2.31535 4.01498,4.94305 4.74258,5.83933 3.01581,3.71494 5.79512,6.99819 5.86495,6.92836 0.0897,-0.0897 -0.42615,-4.20861 -1.58785,-12.67793 l -0.86194,-6.28386 h 0.57335 c 0.50442,0 0.59494,0.19087 0.75296,1.5875 0.0988,0.87313 0.26299,1.58152 0.3649,1.57422 0.10192,-0.007 0.51842,-0.71661 0.92556,-1.57623 1.01556,-2.14422 3.03766,-4.08269 5.47745,-5.25089 1.88601,-0.90305 2.12209,-0.95031 4.7625,-0.95343 2.4565,-0.003 2.98331,0.0831 4.55051,0.74298 1.99145,0.83851 2.4112,1.19752 2.06157,1.76323 -0.19956,0.32289 -0.46357,0.27195 -1.67824,-0.32378 -2.16898,-1.06376 -4.32545,-1.43483 -6.32503,-1.08835 -7.1274,1.23501 -11.03268,8.50035 -8.05569,14.9867 1.63007,3.55166 4.87679,5.73552 8.84439,5.94906 2.49931,0.13452 4.13293,-0.27929 6.35717,-1.61033 2.19299,-1.31232 1.63131,-1.58013 -0.75558,-0.36027 -2.09766,1.07204 -2.20345,1.09605 -4.82864,1.09605 -3.28541,0 -4.7598,-0.49538 -6.60143,-2.21801 -5.48236,-5.1281 -3.96778,-13.54762 2.9827,-16.58078 1.7848,-0.77888 5.49232,-0.72298 7.34254,0.11069 1.58769,0.71539 1.98711,1.0964 1.67641,1.59913 -0.17583,0.28449 -0.53062,0.20344 -1.77081,-0.40453 -1.3152,-0.64475 -1.87262,-0.76031 -3.66758,-0.76031 -1.77785,0 -2.35653,0.1176 -3.61518,0.73467 -1.69179,0.82942 -3.46837,2.47853 -4.18642,3.88603 -0.26547,0.52037 -0.62688,1.67906 -0.80312,2.57487 -0.36903,1.87577 -0.0782,3.60306 0.9534,5.66275 0.78961,1.57652 2.95413,3.51298 4.52499,4.04822 2.63726,0.89861 6.07981,0.31543 8.68808,-1.47178 1.53287,-1.05034 0.59807,-1.06682 -1.34006,-0.0236 -1.77555,0.95567 -1.93372,0.9906 -4.48627,0.9906 -2.53888,0 -2.70132,-0.0353 -4.01819,-0.87231 -2.44234,-1.55243 -3.97172,-4.6482 -3.71189,-7.51364 0.38267,-4.22017 3.84801,-7.35676 8.12784,-7.35676 2.32734,0 5.02919,1.34563 4.15634,2.07003 -0.26629,0.221 -0.64499,0.14844 -1.52803,-0.29279 -1.60417,-0.80157 -4.17245,-0.7932 -5.72316,0.0187 -1.38565,0.72544 -2.91351,2.27779 -3.43929,3.49444 -0.62114,1.43729 -0.54916,4.12923 0.14933,5.58438 1.77597,3.69987 5.54289,4.9637 9.38456,3.1486 1.63655,-0.77324 2.7924,-1.70389 2.49079,-2.0055 -0.0824,-0.0824 -0.65087,0.16656 -1.26333,0.55319 -1.61263,1.01801 -3.03276,1.4527 -4.72439,1.4461 -2.7449,-0.0107 -4.67286,-1.47733 -5.50583,-4.1883 -0.8312,-2.7052 0.39615,-5.82201 2.82712,-7.1794 2.19584,-1.22611 6.60229,-0.70672 6.28433,0.74073 -0.10919,0.49703 -0.12534,0.49622 -1.76182,-0.0889 -2.09109,-0.74762 -4.80171,0.23014 -5.7591,2.07739 -1.01372,1.95592 -0.90815,3.8448 0.31849,5.69837 1.61269,2.43694 5.15918,2.50057 8.24369,0.14789 l 0.85835,-0.65469 -0.78634,-2.13269 c -0.43249,-1.17298 -0.71904,-2.2416 -0.63678,-2.3747 0.22762,-0.36829 0.83752,-0.28882 0.99826,0.13006 1.53066,3.98884 3.618,9.77502 3.618,10.02923 0,0.55946 -2.8955,2.27894 -4.82399,2.8647 -1.46789,0.44586 -2.31559,0.53155 -4.38482,0.44323 -3.31959,-0.14169 -5.32351,-1.03454 -7.54196,-3.36036 -1.69004,-1.77183 -1.65948,-1.82555 -1.11185,1.95426 0.53545,3.69569 0.55208,3.57187 -0.47972,3.57187 -0.7684,0 -1.06124,-0.22622 -2.31194,-1.78594 z m -50.607229,0.79375 c -0.0659,-0.10914 0.40548,-1.80578 1.04752,-3.77031 l 1.16734,-3.57187 2.01046,-2.11667 c 1.10575,-1.16417 3.44923,-3.69425 5.20773,-5.6224 1.75851,-1.92815 3.34493,-3.50573 3.52538,-3.50573 0.97871,0 0.50647,0.79786 -2.02192,3.41609 -0.3638,0.37672 -1.67349,1.80736 -2.91041,3.1792 -1.23693,1.37183 -2.86422,3.15776 -3.61621,3.96875 -1.23446,1.3313 -1.45086,1.75716 -2.22814,4.38492 -0.47348,1.60073 -0.96374,3.11878 -1.08945,3.37344 -0.23223,0.47043 -0.87412,0.62591 -1.0923,0.26458 z m -1.64721,-0.62123 c -0.0987,-0.15978 0.28022,-1.77974 0.84217,-3.59992 l 1.02171,-3.30941 3.70627,-4.01698 c 2.03846,-2.20933 4.44012,-4.83278 5.33703,-5.82988 1.18221,-1.31428 1.75225,-1.76629 2.07252,-1.64339 0.24298,0.0932 0.40211,0.27298 0.35363,0.39943 -0.0972,0.25359 -3.10624,3.57665 -7.32283,8.08711 -2.94005,3.14496 -3.24553,3.67511 -4.39286,7.62386 -0.7062,2.43051 -1.14581,3.05262 -1.61764,2.28918 z m 20.45508,-0.16856 c -1.29148,-0.10183 -1.41568,-0.2033 -1.0178,-0.83147 0.18353,-0.28975 0.71168,-0.32462 2.57564,-0.17005 2.11595,0.17547 2.72533,0.39753 2.73759,0.99756 0.004,0.19571 -1.84215,0.19741 -4.29543,0.004 z m -22.27682,-0.3115 c -0.0821,-0.13277 0.30729,-1.72715 0.86522,-3.54307 1.14205,-3.7171 0.68894,-3.07367 6.95561,-9.87724 4.73015,-5.13541 4.84109,-5.23733 5.3753,-4.93837 0.35408,0.19815 0.28781,0.37141 -0.444,1.16067 -0.47311,0.51027 -2.17972,2.35092 -3.79246,4.09035 -5.48482,5.91571 -6.19587,6.72098 -6.19587,7.01686 0,0.16266 -0.42777,1.65395 -0.95059,3.31397 -0.88288,2.80325 -1.35244,3.52236 -1.81321,2.77683 z m -1.84723,-0.52131 c -0.0794,-0.12845 0.0868,-0.90537 0.36932,-1.7265 0.28251,-0.82113 0.76294,-2.38137 1.06763,-3.46719 l 0.55396,-1.97422 -0.67432,-4.52051 c -0.37087,-2.48627 -0.67431,-4.71599 -0.67431,-4.95492 0,-0.97946 -0.85044,0.44626 -7.14191,11.97305 -0.55328,1.01368 -1.1234,1.8822 -1.26694,1.93004 -0.60038,0.20013 -1.11616,-0.78754 -1.11669,-2.13834 -7.9e-4,-2.02731 -0.75328,-19.02917 -0.9488,-21.43748 -0.15438,-1.90152 -0.12878,-2.06799 0.30523,-1.98438 0.26057,0.0502 0.55229,0.38894 0.64828,0.75274 0.096,0.3638 0.31677,4.11427 0.49063,8.33438 0.17386,4.2201 0.36969,8.44682 0.43517,9.3927 0.0655,0.94589 0.12115,2.37039 0.12371,3.16556 0.007,2.15336 -0.31268,2.62139 5.74553,-8.41359 1.30297,-2.37335 2.19365,-4.29309 2.14593,-4.62523 -0.0552,-0.38437 -1.23242,1.4972 -3.64377,5.82408 -1.9592,3.51555 -3.64095,6.34321 -3.73724,6.2837 -0.37851,-0.23393 -0.14869,-1.62657 0.43425,-2.63139 0.33768,-0.58208 1.06799,-1.89563 1.6229,-2.919 4.8367,-8.91985 5.26468,-9.64702 5.63913,-9.58142 0.21829,0.0382 0.43455,0.39593 0.4806,0.79487 0.0975,0.84437 0.2564,0.90142 0.73084,0.26232 0.65553,-0.88305 1.11067,0.11277 1.54183,3.37344 0.22128,1.67349 0.58254,4.22445 0.80279,5.6688 0.30018,1.96849 0.32529,2.71667 0.10029,2.98778 -0.16509,0.19892 -0.39465,0.2672 -0.51012,0.15172 -0.1845,-0.18449 -1.55483,-8.853 -1.55765,-9.85341 -7.9e-4,-0.29192 -0.0747,-0.30997 -0.30922,-0.0755 -0.23374,0.23373 -0.23513,0.90139 -0.006,2.76489 0.61673,5.01058 1.18624,8.14508 1.4762,8.12477 0.1611,-0.0113 2.36273,-2.27348 4.89252,-5.02709 4.29958,-4.67998 5.07272,-5.35979 5.43289,-4.77702 0.078,0.12624 -2.22742,2.81084 -5.1232,5.96579 l -5.26506,5.73626 -0.95975,3.09618 c -0.52786,1.70291 -1.00962,3.24502 -1.07058,3.42692 -0.12722,0.37958 -0.81957,0.44464 -1.03431,0.0972 z m 24.90166,-1.01849 c -0.7763,-0.0806 -0.98723,-0.2074 -0.91665,-0.55084 0.0763,-0.37127 0.37604,-0.43481 1.78715,-0.37882 1.5443,0.0613 2.10552,0.30634 2.11815,0.92492 0.004,0.1989 -1.10268,0.20065 -2.98865,0.005 z m 31.121649,-0.42219 c -0.33422,-0.42489 -0.61923,-1.29869 -0.72566,-2.22473 -0.0964,-0.83875 -0.46198,-3.6086 -0.81241,-6.15522 -1.07164,-7.78766 -1.08059,-7.9375 -0.47411,-7.9375 0.47251,0 0.57404,0.39669 1.1005,4.29948 0.31899,2.36472 0.82414,6.05651 1.12256,8.20398 0.29842,2.14748 0.4969,4.04158 0.44105,4.20911 -0.0568,0.17045 -0.34393,-0.004 -0.65193,-0.39512 z m 21.05706,-2.47372 c -0.16095,-0.41077 -0.7456,-1.99701 -1.29925,-3.52498 -0.55364,-1.52796 -1.28186,-3.52886 -1.61826,-4.44643 -0.5247,-1.43115 -0.5567,-1.70227 -0.2251,-1.90721 0.2126,-0.1314 0.46226,-0.15457 0.55479,-0.0515 0.22703,0.25292 3.60462,9.31167 3.71638,9.96741 0.14751,0.86549 -0.78695,0.83461 -1.12856,-0.0373 z m -87.334949,-0.15055 c -0.33033,-0.26254 -0.4518,-1.13175 -0.5825,-4.16818 -0.0908,-2.11005 -0.34405,-7.6951 -0.56273,-12.41123 -0.21868,-4.71612 -0.35415,-8.61822 -0.30104,-8.67133 0.0531,-0.0531 0.28486,-0.0243 0.51502,0.064 0.54646,0.2097 0.64742,1.24013 0.99647,10.17063 0.15641,4.00182 0.37367,9.00245 0.4828,11.1125 0.10913,2.11005 0.12437,3.9262 0.0339,4.03589 -0.0905,0.10968 -0.35235,0.0502 -0.5819,-0.1323 z m 63.939819,-0.30373 c -0.22828,-0.34841 -0.47182,-1.03302 -0.54118,-1.52136 -1.64055,-11.54983 -1.64494,-11.6035 -0.94797,-11.6035 0.43842,0 0.57724,0.65278 1.33638,6.28385 0.46593,3.45612 0.90289,6.55175 0.97102,6.87917 0.16276,0.78224 -0.29468,0.7609 -0.81825,-0.0382 z m 25.43173,0.41052 c -0.4465,-0.72244 -3.81557,-10.22177 -3.69467,-10.41738 0.0805,-0.13029 0.3288,-0.20053 0.55173,-0.15609 0.47021,0.0937 4.15195,9.86693 3.93249,10.43883 -0.15389,0.40104 -0.58,0.47371 -0.78955,0.13464 z m 1.75812,-0.65267 c -0.13156,-0.17325 -1.05432,-2.55713 -2.05057,-5.29752 -1.49577,-4.11441 -1.74558,-5.02399 -1.43378,-5.22058 0.51575,-0.32519 0.8948,0.23762 1.59646,2.37041 0.31616,0.961 1.09398,3.09848 1.7285,4.74997 0.63451,1.65148 1.15366,3.09726 1.15366,3.21284 0,0.37156 -0.74702,0.51047 -0.99427,0.18488 z m -92.985829,-0.49933 c -0.38429,-0.29456 -0.48961,-1.21294 -0.72229,-6.29797 -0.14983,-3.27421 -0.40788,-8.84621 -0.57345,-12.38221 -0.16557,-3.536 -0.24454,-6.4856 -0.17547,-6.55467 0.0691,-0.0691 0.30999,-0.0548 0.53539,0.0317 0.4573,0.17548 0.44083,-0.0408 1.14745,15.06874 0.23139,4.9477 0.37965,9.3296 0.32948,9.73754 -0.0803,0.65288 -0.1451,0.70041 -0.54111,0.39688 z m 94.779049,-1.60161 c -0.38433,-1.76052 -2.20548,-10.45307 -3.06262,-14.61823 -0.35936,-1.74625 -0.81416,-3.91165 -1.01067,-4.812 -0.25229,-1.15593 -0.27464,-1.71965 -0.076,-1.91823 0.57886,-0.57887 0.3452,-0.71609 7.84831,4.60921 0.94588,0.67134 3.92245,2.76759 6.61458,4.65833 2.69214,1.89074 4.92959,3.53718 4.97212,3.65875 0.0425,0.12157 -0.13271,0.30163 -0.38942,0.40015 -0.3239,0.12429 -1.16805,-0.30362 -2.75814,-1.39814 -1.5376,-1.05839 -2.25137,-1.42422 -2.16974,-1.11207 0.0912,0.34871 -0.41565,0.8063 -2.0243,1.82761 -1.18028,0.74934 -2.20154,1.36243 -2.26949,1.36243 -0.0679,0 -0.12199,-0.26789 -0.12011,-0.59531 0.003,-0.44792 0.49315,-0.91394 1.98138,-1.88219 1.08788,-0.70779 1.92547,-1.37182 1.86131,-1.47563 -0.0642,-0.10381 -1.56798,-1.19159 -3.34182,-2.41728 -1.77384,-1.2257 -3.65477,-2.53378 -4.17983,-2.90685 -3.40439,-2.41888 -4.5808,-3.1921 -4.69017,-3.08272 -0.0683,0.0683 0.11621,1.29968 0.41005,2.73637 1.23588,6.04252 3.1789,15.3976 3.42576,16.49402 0.18439,0.81893 0.17958,1.28612 -0.0156,1.52135 -0.49004,0.59046 -0.69395,0.37762 -1.00551,-1.04957 z m -96.777099,0.64145 c -0.23395,-0.14854 -0.4098,-1.87695 -0.59854,-5.88293 -0.14699,-3.11992 -0.38487,-7.94941 -0.52861,-10.73219 -0.14375,-2.78278 -0.26318,-5.40216 -0.2654,-5.82083 -0.004,-0.83583 -0.50773,-0.0429 -3.96752,6.25023 -1.91749,3.4878 -2.2588,4.10067 -3.70568,6.654 -0.57971,1.02302 -1.05402,1.94195 -1.05402,2.04207 0,0.10011 -0.18185,0.44165 -0.40411,0.75897 -0.4092,0.58421 -1.18339,0.5598 -1.18339,-0.0373 0,-0.17337 0.98856,-2.0954 2.19679,-4.27117 3.88574,-6.99737 4.54106,-8.28557 3.76215,-7.39552 -0.38205,0.43656 -1.41926,1.74625 -2.30492,2.91042 -5.0566,6.64675 -5.55254,7.24161 -5.91996,7.10062 -0.7057,-0.2708 -0.52018,-0.69838 1.2278,-2.82985 0.68758,-0.83843 3.77601,-4.86422 7.91731,-10.32029 1.23693,-1.62963 2.5275,-3.31623 2.86795,-3.74802 l 0.61898,-0.78506 0.46507,0.57432 c 0.36961,0.45646 0.50211,1.32521 0.6456,4.23297 0.24642,4.99374 0.94823,20.48294 0.95399,21.05499 0.005,0.50219 -0.2056,0.57341 -0.72349,0.24458 z m 65.713789,-0.80483 c -0.5161,-0.57177 -0.86668,-2.32144 -1.48416,-7.40712 -0.27512,-2.26592 -0.27189,-2.77956 0.0186,-2.95911 0.19334,-0.11948 0.42654,-0.17088 0.51824,-0.11421 0.0917,0.0567 0.31278,1.15014 0.49132,2.42994 0.17854,1.27979 0.50564,3.54337 0.72689,5.03017 0.48826,3.28101 0.44091,3.80892 -0.2709,3.02033 z m 32.829,-0.36579 c -0.0827,-0.47294 -0.57925,-2.88396 -1.10335,-5.35781 -1.45996,-6.89123 -2.51962,-12.07928 -2.51962,-12.33596 0,-0.28988 0.29144,-0.29049 0.74716,-0.002 0.32805,0.20798 0.83587,2.3482 2.55068,10.75001 0.38612,1.89177 0.88937,4.24184 1.11835,5.22238 0.33558,1.437 0.35193,1.86037 0.0843,2.18281 -0.49891,0.60114 -0.71143,0.48977 -0.87756,-0.45988 z m 1.81075,-0.53363 c -0.0564,-0.17944 -0.53333,-2.40986 -1.0599,-4.95647 -0.52657,-2.54662 -1.2595,-6.03938 -1.62874,-7.7617 -0.36924,-1.72232 -0.61902,-3.18381 -0.55507,-3.24776 0.064,-0.0639 0.37304,0.0951 0.68687,0.35336 0.39969,0.32898 0.68634,1.06397 0.95708,2.45401 0.21256,1.09141 0.69117,3.41313 1.06358,5.15938 0.95548,4.48042 1.45236,7.07307 1.45241,7.57846 6e-5,0.52599 -0.77181,0.88043 -0.91623,0.42072 z m 1.60962,-1.45074 c -0.0748,-0.25466 -0.31835,-1.35599 -0.54113,-2.4474 -0.99918,-4.8949 -2.02163,-9.68521 -2.13187,-9.98802 -0.13859,-0.38068 0.35359,-0.43083 0.89057,-0.0907 0.20137,0.12753 0.52431,1.04844 0.71764,2.04647 0.19333,0.99803 0.7623,3.77758 1.26437,6.1768 0.50207,2.39921 0.85672,4.45303 0.7881,4.56406 -0.22948,0.3713 -0.85004,0.20722 -0.98768,-0.26116 z M 50.735571,195.37819 c -0.20811,-0.25076 0.38043,-1.54487 2.28271,-5.01925 1.40972,-2.57476 2.65242,-4.68491 2.76156,-4.68921 0.10914,-0.004 0.19843,0.3639 0.19843,0.81823 0,0.77051 -0.53947,1.89778 -3.02343,6.31769 -0.53158,0.94589 -1.09991,1.98768 -1.26296,2.31511 -0.33829,0.67929 -0.55727,0.73824 -0.95631,0.25743 z m -1.62223,-0.8356 c -0.28381,-0.34197 0.10291,-1.19217 2.44304,-5.37109 1.52912,-2.73064 3.0603,-5.50059 3.40262,-6.15543 l 0.6224,-1.19063 0.0818,1.13403 c 0.056,0.77577 -0.082,1.40266 -0.43689,1.98437 -0.63748,1.04504 -1.0634,1.81222 -3.33647,6.00973 -2.11908,3.91314 -2.30649,4.15538 -2.77652,3.58902 z m 14.81799,-1.11532 c -0.0123,-0.86705 0.30994,-1.67449 1.53103,-3.83646 0.85062,-1.50606 2.22363,-3.95348 3.05114,-5.43872 1.07971,-1.93792 1.61424,-2.65835 1.893,-2.55138 0.51212,0.19652 0.48873,0.58468 -0.0933,1.54765 -0.26385,0.43656 -1.14819,2.04391 -1.96519,3.57187 -1.48923,2.78519 -3.65877,6.66486 -4.14279,7.40834 -0.19119,0.29368 -0.26242,0.11133 -0.27393,-0.7013 z m 12.17556,-0.95235 c -1.33168,-8.00374 -1.40552,-9.21879 -0.50555,-8.31882 0.44179,0.44179 1.73784,9.08465 1.46782,9.78832 -0.34029,0.88678 -0.64856,0.41602 -0.96227,-1.4695 z m -28.58544,1.13056 c -0.28116,-0.17376 0.45524,-1.71759 3.30453,-6.92785 4.60552,-8.42172 4.45267,-8.15581 4.68927,-8.15781 0.10914,-7.9e-4 0.19844,0.36395 0.19844,0.81082 0,0.54983 -1.20341,2.98622 -3.72242,7.5363 -2.04733,3.69809 -3.80919,6.77742 -3.91524,6.84296 -0.10604,0.0655 -0.35561,0.0186 -0.55458,-0.10442 z m 112.614459,-0.71164 c -0.44018,-0.44018 -0.0108,-0.88923 2.33123,-2.43805 1.81731,-1.2018 2.65492,-1.61156 3.04271,-1.48848 0.2943,0.0934 0.53291,0.25111 0.53024,0.35044 -0.004,0.16512 -5.37941,3.75248 -5.62237,3.75248 -0.058,0 -0.18479,-0.0794 -0.28181,-0.17639 z m -82.282279,-0.52171 c -0.0767,-0.27088 -0.27947,-1.38549 -0.45061,-2.4769 -0.17113,-1.0914 -0.41827,-2.63132 -0.5492,-3.42203 -0.32806,-1.98126 -0.31172,-2.10394 0.2602,-1.95438 0.5329,0.13936 0.53426,0.14466 1.23791,4.82101 0.36311,2.41319 0.36651,2.79946 0.0276,3.13836 -0.3389,0.3389 -0.40363,0.32584 -0.52591,-0.10606 z m -14.02605,-1.85954 c -0.48124,-0.48124 0.0197,-1.80775 2.13872,-5.66303 1.57255,-2.86111 2.44239,-4.18783 2.71197,-4.13643 0.69587,0.13268 0.34622,1.03419 -2.12898,5.48924 -2.7492,4.94819 -2.49164,4.5403 -2.72171,4.31022 z m -22.08993,-1.11195 c -0.26067,-0.16527 0.51435,-1.36301 3.03624,-4.69231 6.33041,-8.35717 9.48386,-12.36509 9.81518,-12.47476 0.18183,-0.0602 0.39878,0.0683 0.48211,0.28544 0.0951,0.24791 -1.28227,2.27289 -3.70143,5.44157 -2.11912,2.7757 -4.73931,6.20955 -5.82265,7.63079 -3.48988,4.57843 -3.14315,4.23172 -3.80945,3.80927 z M 166.7064,187.1966 c -1.89177,-1.33859 -5.13031,-3.63048 -7.19676,-5.0931 -2.06645,-1.46262 -4.70923,-3.31415 -5.87286,-4.11452 -2.06518,-1.42047 -2.41793,-1.89706 -1.53136,-2.06902 0.24003,-0.0465 3.26625,1.90707 6.72495,4.34139 3.45869,2.43432 7.0029,4.91956 7.87603,5.52277 3.06928,2.12043 4.36562,3.10446 4.36562,3.31388 0,0.16332 -0.61249,0.53332 -0.88153,0.53252 -0.0245,-7e-5 -1.59232,-1.09534 -3.48409,-2.43392 z m -7.54063,1.42028 c 0,-0.61654 2.42781,-2.22828 3.01633,-2.00245 0.68911,0.26444 0.50064,0.5688 -0.96227,1.55398 -1.55621,1.04801 -2.05406,1.15671 -2.05406,0.44847 z M 40.205751,188.19316 c -0.0859,-0.22374 0.91475,-1.76919 2.4411,-3.77031 9.61545,-12.60631 10.17591,-13.31303 10.55784,-13.31303 0.19861,0 0.4224,0.0992 0.49731,0.22038 0.12512,0.20246 -0.73715,1.64542 -1.59147,2.66321 -0.37517,0.44696 -7.09589,9.14859 -9.70661,12.5676 -1.55422,2.03541 -1.93494,2.3181 -2.19817,1.63215 z m 130.204819,-0.64225 c -0.72761,-0.54908 -2.09683,-1.53688 -3.04271,-2.1951 -0.94589,-0.65822 -2.73183,-1.90802 -3.96875,-2.77732 -1.23693,-0.86931 -3.91584,-2.74851 -5.95313,-4.17601 -4.65666,-3.26286 -4.63771,-3.24554 -3.78613,-3.45928 0.54104,-0.13579 1.264,0.26045 3.95459,2.16741 1.81088,1.28347 5.93366,4.17905 9.16172,6.43462 5.53459,3.86724 6.51736,4.77567 5.35116,4.94637 -0.21661,0.0317 -0.98915,-0.39161 -1.71675,-0.94069 z M 38.796391,187.13642 c -0.25514,-0.30742 0.89618,-1.95162 6.19741,-8.85059 4.54033,-5.90875 6.62721,-8.42835 6.89553,-8.32538 0.21163,0.0812 0.38478,0.26632 0.38478,0.41135 0,0.2461 -2.10022,3.09409 -5.544,7.51788 -0.8071,1.03679 -2.77715,3.62118 -4.37788,5.7431 -1.60073,2.12191 -2.98513,3.86324 -3.07645,3.86962 -0.0913,0.006 -0.30705,-0.15832 -0.47939,-0.36598 z m 130.405349,-2.73084 c -2.39108,-1.69164 -6.43102,-4.55239 -8.97763,-6.35722 -2.54662,-1.80483 -4.8088,-3.38323 -5.02709,-3.50755 -0.3487,-0.1986 -0.34423,-0.27934 0.0368,-0.66526 0.40333,-0.40848 0.69045,-0.25665 4.10104,2.16868 4.43052,3.15061 4.61079,3.27724 10.33834,7.26196 2.50489,1.74268 4.62158,3.27731 4.70377,3.41029 0.0822,0.13299 -0.0705,0.35947 -0.3392,0.5033 -0.40173,0.21499 -1.26184,-0.28552 -4.83606,-2.8142 z M 65.163951,143.83351 c -0.55044,-0.12962 -1.34819,-0.41531 -1.7728,-0.63489 -0.42461,-0.21957 -1.06998,-0.39922 -1.43416,-0.39922 -0.86051,0 -1.94167,-0.49873 -2.12675,-0.98104 -0.1651,-0.43025 0.27646,-1.40021 0.63743,-1.40021 0.13059,0 0.31302,-0.23812 0.4054,-0.52916 0.33655,-1.06038 2.09009,-0.32242 2.58387,1.08739 0.0827,0.23617 0.70248,0.56526 1.39106,0.73865 1.83399,0.4618 2.85988,0.052 3.44434,-1.37574 0.66568,-1.6262 0.79705,-5.61068 0.28091,-8.5201 -0.23235,-1.30968 -0.42283,-2.95747 -0.4233,-3.66175 -5.3e-4,-0.92113 -0.14062,-1.40379 -0.4989,-1.71979 -0.38013,-0.33527 -0.57214,-1.09716 -0.81088,-3.21741 -0.17204,-1.52797 -0.51346,-3.19247 -0.7587,-3.6989 -0.84877,-1.75269 -4.07447,-3.55307 -6.98316,-3.89756 -1.63211,-0.1933 -2.39842,0.30841 -2.99839,1.96307 -0.95703,2.6394 -1.68523,4.04589 -2.09472,4.04589 -1.19394,0 -4.08764,9.26467 -3.77494,12.08608 0.14194,1.2806 1.27078,2.80717 2.72465,3.68462 0.88038,0.53133 1.00541,0.54366 1.74935,0.17253 0.65603,-0.32727 0.98787,-0.34377 1.83136,-0.091 0.96527,0.2892 1.03015,0.37279 1.03015,1.32704 0,1.45455 -0.7091,2.25411 -1.78879,2.01697 -0.4577,-0.10053 -1.10567,-0.39536 -1.43993,-0.65518 -0.33425,-0.25981 -1.08398,-0.62469 -1.66607,-0.81083 -1.59379,-0.50967 -2.32731,-0.93518 -3.26436,-1.89362 -0.9914,-1.01403 -1.89501,-3.62727 -1.89501,-5.48038 0,-2.15736 1.24978,-5.60757 3.65551,-10.0916 0.27326,-0.50932 0.89447,-2.16181 1.38047,-3.67219 0.486,-1.51038 1.13022,-3.11772 1.4316,-3.57187 0.85125,-1.28275 2.83257,-2.12903 4.97173,-2.12358 l 1.78202,0.005 -0.0343,-0.94085 c -0.0407,-1.11694 0.18677,-2.27173 0.83692,-4.24813 1.2503,-3.80084 3.40014,-8.625764 4.06768,-9.129142 0.19371,-0.146079 0.44469,-0.562798 0.55771,-0.926042 0.11303,-0.363243 0.40723,-0.958098 0.65377,-1.3219 0.49318,-0.72775 0.93941,-1.849506 1.18836,-2.987384 0.0888,-0.406133 0.25567,-0.680254 0.37071,-0.609158 0.17568,0.108574 4.45025,-8.350351 5.26879,-10.426375 0.14344,-0.363802 0.79713,-1.375833 1.45266,-2.248958 1.29484,-1.724689 2.31429,-3.500337 2.31429,-4.030988 0,-0.184057 0.11228,-0.304882 0.24951,-0.268502 0.13722,0.03638 0.90245,-0.630851 1.70051,-1.482738 0.79805,-0.851887 1.56281,-1.479791 1.69945,-1.395341 0.13664,0.08445 1.65274,-1.540269 3.36911,-3.610488 3.78438,-4.564582 8.59734,-9.404371 11.10538,-11.16729 1.01865,-0.716012 2.11408,-1.553485 2.4343,-1.861051 1.80589,-1.734551 5.705109,-3.03882 9.084789,-3.03882 2.81765,0 4.85481,0.518849 7.37837,1.879217 4.02867,2.17172 11.84109,8.929138 13.5808,11.746824 0.35939,0.582083 1.37318,1.938099 2.25286,3.013369 0.87968,1.075269 2.40029,3.311953 3.37914,4.970409 0.97885,1.658456 2.00539,3.136149 2.2812,3.28376 0.27582,0.147613 0.42768,0.38781 0.33747,0.53377 -0.0902,0.14596 1.01958,2.01522 2.4662,4.153911 4.82279,7.13005 6.65675,10.36811 8.27714,14.614194 0.46993,1.231405 0.94187,2.357982 1.04876,2.503503 0.10689,0.145521 0.27784,0.74083 0.37989,1.32291 0.10205,0.58209 0.48014,1.68741 0.8402,2.45627 1.13034,2.41371 2.45075,8.43396 3.00114,13.68332 0.16784,1.60073 0.4957,4.02776 0.72859,5.39341 0.32758,1.9209 0.35365,2.59473 0.1152,2.97656 -0.24268,0.38859 -0.23357,0.49357 0.0428,0.49357 1.15825,0 3.1326,0.89562 4.09424,1.85727 3.56855,3.56855 2.95764,9.39471 -1.26585,12.07228 -1.02894,0.65232 -1.44691,0.7534 -3.07794,0.7443 -1.59198,-0.009 -2.05441,-0.12112 -2.95515,-0.7172 -0.58732,-0.38866 -1.38648,-1.12442 -1.77593,-1.63501 -1.46747,-1.92395 -2.16476,-5.98541 -1.35604,-7.89837 0.19797,-0.46827 1.03141,-1.48322 1.85209,-2.25544 1.52606,-1.43595 1.79632,-1.99449 1.09527,-2.26351 -0.32472,-0.12461 -0.39811,-0.79116 -0.40364,-3.66633 -0.005,-2.83962 -0.15479,-4.22494 -0.77805,-7.2182 -0.42421,-2.03729 -0.91049,-4.41854 -1.08063,-5.29167 -0.6129,-3.14525 -1.1608,-5.01061 -1.60107,-5.45088 -0.24663,-0.24663 -0.77232,-1.17018 -1.16821,-2.05235 -0.39589,-0.88217 -0.84445,-1.57888 -0.99678,-1.54826 -0.15234,0.0306 -0.66552,-0.982165 -1.14042,-2.250619 -0.47489,-1.268455 -1.20447,-2.816268 -1.62129,-3.439584 -0.41682,-0.623316 -0.90345,-1.490488 -1.08141,-1.92705 -0.30656,-0.752052 -0.30105,-0.76595 0.10498,-0.264583 0.41801,0.516165 0.42376,0.512916 0.23419,-0.132292 -0.29547,-1.00561 -1.84094,-4.012679 -3.87549,-7.540625 -3.34184,-5.794798 -4.07839,-6.872824 -4.75339,-6.957099 -0.46564,-0.05814 -0.90987,-0.576877 -1.74869,-2.041983 -0.61846,-1.080228 -1.12448,-2.080205 -1.12448,-2.222169 0,-0.141965 -0.21378,-0.413698 -0.47508,-0.603851 -0.2613,-0.190151 -1.55763,-1.595887 -2.88074,-3.123856 -3.85744,-4.454689 -6.78541,-7.05583 -10.93168,-9.711437 -3.8783,-2.483977 -5.88667,-3.102012 -8.02158,-2.468466 -6.454999,1.915562 -10.505379,4.580072 -17.867539,11.754016 -2.32912,2.269572 -5.21067,5.485527 -4.20499,4.692971 0.39989,-0.315143 0.46078,-0.303374 0.46078,0.08904 0,0.248695 -0.71438,1.19612 -1.5875,2.105388 -0.87313,0.909269 -1.5875,1.789046 -1.5875,1.955059 0,0.166012 -0.43087,0.691681 -0.95748,1.168154 -2.0671,1.870273 -8.18013,11.40665 -10.47715,16.344436 -0.30463,0.654844 -0.70587,1.309688 -0.89163,1.455209 -0.18577,0.14552 -0.5329,0.949192 -0.7714,1.785937 -0.2385,0.836744 -0.52808,1.521354 -0.6435,1.521354 -0.35627,0 -1.90122,4.6405 -3.04314,9.14056 -0.36072,1.42152 -0.77994,2.70867 -0.93161,2.86034 -0.50672,0.50672 -0.28495,0.85377 0.91948,1.43892 1.62748,0.79069 3.40918,2.48742 4.05523,3.86184 0.2942,0.62587 0.61196,1.90036 0.70613,2.8322 0.0942,0.93184 0.2882,2.39103 0.43116,3.24264 0.20843,1.24171 0.18516,1.63474 -0.11748,1.98438 -0.5163,0.59646 -0.1988,3.21932 0.72536,5.99224 1.00571,3.01755 1.16608,5.90285 0.43541,7.83331 -0.70045,1.8506 -2.26494,3.53922 -3.63032,3.91834 -0.56243,0.15616 -1.08213,0.27264 -1.15489,0.25884 -0.0728,-0.0138 -0.58265,-0.13115 -1.13308,-0.26076 z m 2.10621,-1.00367 c 0.17143,-0.0895 -0.27167,-0.18768 -0.98466,-0.21819 -0.71299,-0.0305 -1.6453,-0.23591 -2.07182,-0.45647 -0.69215,-0.35793 -0.79199,-0.358 -0.92911,-8e-4 -0.32488,0.84662 2.68177,1.35609 3.98559,0.67534 z m -13.40855,-4.07876 c 0,-0.18928 -0.53134,-0.60229 -1.18074,-0.9178 -0.64941,-0.31551 -1.68329,-1.02384 -2.29751,-1.57407 l -1.11675,-1.00043 0.64385,1.15656 c 0.87045,1.56359 3.95115,3.38476 3.95115,2.33574 z m 97.788979,-7.71849 c -0.0872,-0.34738 -0.34545,-0.81852 -0.5739,-1.04698 -0.52144,-0.52144 -1.96466,-0.53815 -2.64212,-0.0306 -0.47263,0.3541 -0.43486,0.37251 0.47347,0.23079 1.21195,-0.18908 2.23277,0.39901 2.4931,1.43625 0.0997,0.39723 0.23227,0.56921 0.29462,0.38218 0.0623,-0.18703 0.042,-0.62428 -0.0452,-0.97166 z m 6.01899,0.24603 c -0.0862,-0.22456 -0.21342,-0.35155 -0.28278,-0.28219 -0.0693,0.0694 -0.0476,0.25308 0.0483,0.40829 0.26089,0.42213 0.41338,0.34012 0.23448,-0.1261 z m -88.438389,-2.42794 c -0.1199,-1.6711 -0.23428,-2.12605 -0.49387,-1.96437 -0.33064,0.20591 -0.28825,0.63889 0.36291,3.70733 0.23993,1.13058 0.28965,0.4688 0.13096,-1.74296 z m -17.52225,-4.83669 c 1.23321,-2.05123 1.31266,-2.27832 0.90369,-2.58288 -0.3998,-0.29774 -0.53949,-0.11138 -1.28917,1.71979 -0.87459,2.13626 -1.32703,3.4717 -1.09919,3.24434 0.0729,-0.0728 0.74102,-1.14433 1.48467,-2.38125 z M 129.85674,98.349405 c -0.18186,-0.654844 -0.44883,-1.622986 -0.59327,-2.151425 -0.14445,-0.528441 -0.44068,-1.108567 -0.65829,-1.289169 -0.49588,-0.411543 -0.51683,-0.822632 -0.0325,-0.636759 0.19976,0.07666 0.6826,0.726212 1.07297,1.443458 0.5486,1.007962 0.69069,1.590249 0.62574,2.564304 l -0.084,1.260216 z m -4.29906,-1.692063 c -0.3605,-0.348552 -1.22822,-0.932371 -1.92828,-1.297374 -1.42358,-0.742243 -1.26139,-1.147768 0.29177,-0.729543 1.09498,0.294846 2.00257,1.11289 2.2914,2.065334 0.22703,0.748642 0.15475,0.744403 -0.65489,-0.03842 z M 88.891751,95.831561 c -0.60124,-0.917612 -0.38497,-3.140757 0.37996,-3.905681 0.77238,-0.772387 0.98401,-0.412845 0.48746,0.828167 -0.25736,0.643192 -0.37815,1.557618 -0.31601,2.392228 0.0553,0.743077 0.052,1.351047 -0.007,1.351047 -0.0593,0 -0.30419,-0.299593 -0.54411,-0.665761 z m 31.115689,-2.885799 c 0,-0.373359 1.88475,-0.946198 3.10036,-0.942306 1.94794,0.0062 2.22605,0.417301 0.42454,0.627502 -0.84729,0.09886 -1.98701,0.250547 -2.53271,0.337082 -0.5457,0.08653 -0.99219,0.07651 -0.99219,-0.02228 z m 47.05063,-4.935239 c -3.69234,-0.541859 -6.99754,-2.99321 -8.70315,-6.45482 -0.82475,-1.673878 -0.91729,-2.096293 -0.99907,-4.560538 -0.0837,-2.521868 -0.12421,-2.697546 -0.56753,-2.460294 -0.34613,0.185245 -0.56985,0.144097 -0.81364,-0.149643 -0.34585,-0.416735 -0.40848,-0.204473 5.65377,-19.162905 0.76779,-2.401094 1.51005,-4.345054 1.64946,-4.319911 0.78809,0.142127 0.60454,1.086201 -1.45889,7.503717 -1.19157,3.705938 -2.68216,8.345412 -3.31241,10.309943 -0.63026,1.964532 -1.09769,3.620754 -1.03875,3.680497 0.18656,0.189087 1.20666,-0.869667 1.6336,-1.695497 0.38241,-0.739725 0.38011,-0.769028 -0.0335,-0.425942 -0.57963,0.480814 -0.6676,0.335468 -0.38313,-0.633016 0.16784,-0.571391 1.30959,-1.681456 4.07569,-3.962572 2.11339,-1.742852 4.04497,-3.350195 4.2924,-3.571875 3.17307,-2.842865 3.78735,-3.261735 4.19116,-2.857922 0.3622,0.362204 0.0256,0.725748 -3.2575,3.518198 -2.01379,1.712839 -3.89957,3.339023 -4.19061,3.613745 -0.5235,0.494144 -0.52055,0.496499 0.27462,0.219991 0.44208,-0.153726 2.44441,-1.647937 4.44962,-3.32047 2.00521,-1.672532 3.75687,-2.972348 3.89257,-2.888479 0.58126,0.359236 0.10541,0.998929 -2.19261,2.94757 l -2.43935,2.068481 2.11291,0.176014 c 7.48616,0.623625 12.46658,6.946953 10.86245,13.791358 -1.04517,4.459502 -5.08141,8.047408 -9.73238,8.651335 -1.06489,0.138277 -2.05522,0.24057 -2.20074,0.227317 -0.14553,-0.01326 -0.93977,-0.123179 -1.765,-0.244282 z m 6.35603,-1.772137 c 2.16009,-0.857096 4.42348,-2.923709 5.47501,-4.999013 0.71849,-1.418 0.78187,-1.768303 0.78187,-4.321217 0,-2.483308 -0.0759,-2.932552 -0.71492,-4.233334 -2.02802,-4.128008 -6.41672,-6.454677 -11.20745,-5.941634 -1.32691,0.1421 -1.92247,0.345586 -2.45535,0.838912 -0.56666,0.524597 -0.60058,0.615095 -0.17436,0.465164 2.69228,-0.947073 6.1474,-0.823423 8.48337,0.303599 5.42434,2.617046 7.20513,9.237628 3.77097,14.019611 -0.94855,1.320838 -3.42777,3.107188 -4.93181,3.553511 -2.5566,0.758679 -6.03176,0.474903 -8.25342,-0.67396 -1.59973,-0.827257 -3.33904,-2.737967 -4.20753,-4.622162 -0.80181,-1.739551 -0.86019,-2.048479 -0.766,-4.053163 0.0751,-1.598335 0.27025,-2.518635 0.74072,-3.493003 0.35132,-0.727604 0.69029,-1.441979 0.75324,-1.5875 0.063,-0.14552 -0.26118,0.0878 -0.72032,0.51848 -2.32591,2.181794 -2.09328,7.453823 0.47925,10.861109 2.91221,3.857202 8.22536,5.237985 12.94673,3.3646 z m -1.47549,-1.407268 c 3.80333,-1.281247 6.01258,-4.186171 6.01258,-7.905874 0,-3.163422 -1.8368,-6.026113 -4.89479,-7.628657 -1.15147,-0.603428 -1.64867,-0.694542 -3.83646,-0.70304 -2.97787,-0.01156 -4.46851,0.53636 -6.30613,2.317996 -3.22765,3.129327 -3.5154,7.704198 -0.70171,11.156047 1.25784,1.543127 3.89191,3.052649 5.32678,3.052649 1.10376,0 0.95574,-0.415147 -0.2402,-0.673701 -3.83939,-0.830051 -6.52299,-4.355703 -6.21699,-8.167753 0.22867,-2.848809 1.60734,-4.872162 4.22514,-6.200892 2.73801,-1.389737 5.9844,-1.177972 8.58495,0.560004 5.24781,3.507174 4.14801,11.322862 -1.89205,13.44577 -0.79401,0.279072 -1.86335,0.507405 -2.37631,0.507405 -0.65263,0 -0.93265,0.119158 -0.93265,0.396875 0,0.568759 1.27701,0.507095 3.24784,-0.156829 z m 0.76223,-2.272448 c 2.35321,-1.280774 3.59532,-3.654859 3.318,-6.341806 -0.35658,-3.454918 -3.22913,-5.916554 -6.89736,-5.910707 -5.93554,0.0095 -9.0795,6.38791 -5.31589,10.784843 0.90608,1.058553 2.77926,2.177155 3.6458,2.177155 0.75886,0 0.49118,-0.473096 -0.44191,-0.781044 -1.29713,-0.428091 -3.01303,-2.008743 -3.61493,-3.329998 -0.74282,-1.630598 -0.67712,-3.211603 0.20299,-4.884296 1.95367,-3.713041 6.99485,-4.462806 9.97421,-1.483447 1.38201,1.382014 1.82912,2.629299 1.68025,4.687361 -0.20108,2.779932 -2.26581,4.827238 -5.22132,5.177274 -0.94411,0.111815 -1.33991,0.275926 -1.33991,0.555566 0,0.616998 2.39469,0.228301 4.01007,-0.650901 z m -1.16573,-1.439235 c 3.08112,-1.491541 3.57044,-5.758601 0.90267,-7.871516 -2.77664,-2.199142 -6.52774,-1.28602 -8.0124,1.950445 -0.26701,0.582083 -0.48549,1.35599 -0.48549,1.719792 0,1.675569 1.94636,4.2493 3.27147,4.325974 0.37691,0.0218 0.68538,0.128947 0.68548,0.238088 5.3e-4,0.428392 2.52366,0.176792 3.63827,-0.362783 z M 38.780361,85.210909 c -0.3638,-0.07157 -2.86412,-1.207032 -5.55625,-2.523252 -2.69214,-1.316223 -5.40081,-2.622603 -6.01927,-2.903072 -0.76506,-0.346948 -1.12448,-0.675124 -1.12448,-1.026726 0,-0.284234 0.11514,-0.516787 0.25586,-0.516787 0.14073,0 2.84637,1.257147 6.01255,2.793661 3.16617,1.536513 6.34708,2.920281 7.06869,3.075038 5.87505,1.259972 11.84239,-3.337774 11.90936,-9.17599 0.0271,-2.363238 -0.19632,-3.248253 -1.03072,-4.082643 l -0.67125,-0.671253 0.55908,1.583198 c 2.20976,6.257586 -3.43015,12.874281 -10.05051,11.791196 -1.71621,-0.280768 -13.25931,-5.747922 -13.25931,-6.28 0,-0.178691 0.12282,-0.400801 0.27293,-0.493577 0.15012,-0.09278 3.02445,1.164555 6.3874,2.794071 6.02339,2.918622 6.14166,2.962497 7.9401,2.945575 3.19508,-0.03006 5.58453,-1.484636 7.09539,-4.319305 0.76098,-1.427739 0.88158,-1.910492 0.87924,-3.519326 -0.003,-2.122858 -0.74676,-3.929059 -2.1768,-5.286893 -0.44976,-0.427048 -3.50274,-2.093923 -6.78441,-3.704167 -5.37448,-2.637132 -5.93258,-2.972 -5.62308,-3.37396 0.31331,-0.406908 0.77515,-0.235625 5.23839,1.942749 2.69214,1.313951 5.18675,2.503232 5.54359,2.642849 l 0.6488,0.25385 -0.51651,-0.581523 c -0.28407,-0.319839 -2.68939,-1.636397 -5.34515,-2.925689 -4.49985,-2.184547 -5.34345,-2.785547 -4.57585,-3.259949 0.13904,-0.08593 1.47849,0.445701 2.97656,1.181401 l 2.72377,1.337636 -2.23923,-2.123336 c -2.07559,-1.968165 -2.20751,-2.155052 -1.80521,-2.55735 0.50392,-0.503926 -0.33272,-0.686231 10.39444,2.264944 8.52442,2.345172 7.73241,2.059983 7.19986,2.592541 -0.40324,0.403237 -0.84255,0.324331 -6.06625,-1.08957 -3.09734,-0.83836 -6.15875,-1.693202 -6.80314,-1.89965 -2.43376,-0.77973 -2.40289,-0.499706 0.21398,1.940475 2.2966,2.14154 4.08663,3.500357 4.6155,3.503643 0.20079,0.0013 -2.51793,-2.643111 -4.22951,-4.11383 -0.91682,-0.787801 -0.71012,-1.022368 0.51718,-0.586907 0.91713,0.325406 11.56384,9.823141 11.56384,10.315888 0,0.600358 -0.89746,0.478888 -1.67108,-0.226181 -0.46335,-0.422291 -1.18604,-1.063117 -1.60597,-1.424062 l -0.76351,-0.656262 0.33023,0.633489 c 0.18162,0.348417 0.77609,1.122323 1.32104,1.719792 0.95764,1.049933 1.12375,1.747761 0.41605,1.747761 -0.24243,0 -0.37511,0.637421 -0.45685,2.194822 -0.21396,4.07657 -2.40939,7.351217 -6.16952,9.202327 -1.63316,0.803997 -2.05694,0.895961 -4.34411,0.942694 -1.39392,0.02848 -2.83206,-0.0068 -3.19586,-0.07834 z m 75.009369,-0.88442 c -0.0899,-0.145521 -0.0444,-0.264584 0.10107,-0.264584 0.14552,0 0.33816,0.119063 0.4281,0.264584 0.0899,0.145521 0.0445,0.264583 -0.10106,0.264583 -0.14552,0 -0.33817,-0.119062 -0.42811,-0.264583 z M 40.058521,81.768561 c -0.38842,-0.06541 -2.71014,-1.102614 -5.15938,-2.304899 -2.44924,-1.202286 -5.07823,-2.466684 -5.84222,-2.809778 -1.34032,-0.601919 -1.70792,-1.094933 -1.09762,-1.472117 0.16029,-0.09907 2.98299,1.110109 6.27268,2.687052 5.26596,2.524289 6.14161,2.86485 7.3222,2.847787 3.32127,-0.04801 6.09627,-2.868644 6.01099,-6.109842 -0.0425,-1.616284 -0.55883,-2.869475 -1.58872,-3.85617 -0.65478,-0.627319 -5.4208,-3.107931 -10.31277,-5.367573 -1.84483,-0.852142 -2.32991,-1.446129 -1.33818,-1.638618 0.55996,-0.108685 11.58319,5.293493 12.43608,6.094574 1.30165,1.22259 1.92485,2.785647 1.92581,4.83022 0.001,1.990659 -0.33199,2.874952 -1.77244,4.707729 -1.36216,1.733153 -4.42416,2.801231 -6.85643,2.391635 z m -2.2042,-2.86639 c -1.30969,-0.638842 -3.57188,-1.730161 -5.02709,-2.425155 -3.73292,-1.78281 -4.36041,-2.175005 -4.19007,-2.618883 0.0801,-0.208759 0.28183,-0.379561 0.44828,-0.379561 0.16646,0 2.56473,1.107604 5.32951,2.461342 6.35433,3.11132 6.55449,3.190103 7.60214,2.99212 1.53835,-0.290713 2.57422,-1.134602 3.27698,-2.669632 0.56643,-1.237255 0.61944,-1.576023 0.38361,-2.45182 -0.1505,-0.558914 -0.53076,-1.292196 -0.84502,-1.629516 -0.31426,-0.33732 -3.12386,-1.851263 -6.24356,-3.364322 -5.3794,-2.609019 -6.38065,-3.309657 -4.94739,-3.46201 0.27964,-0.02973 3.06398,1.220431 6.18742,2.778125 4.51919,2.253771 5.79797,3.009043 6.26164,3.69823 1.72833,2.568974 0.58973,6.278036 -2.36654,7.709143 -1.76751,0.855636 -3.10595,0.710147 -5.86991,-0.638061 z M 154.60047,72.756546 c -0.40351,-0.445876 -0.33723,-0.771433 0.9851,-4.838944 0.77974,-2.398498 2.15379,-6.682623 3.05344,-9.520279 0.89966,-2.837657 1.93296,-6.08838 2.29622,-7.22383 0.6431,-2.010117 1.17619,-2.520999 1.35629,-1.299778 0.0701,0.475457 -5.38089,18.190689 -6.79829,22.093798 -0.43581,1.200079 -0.48301,1.241796 -0.89276,0.789033 z m -1.52221,-1.529459 c -0.29749,-0.358455 0.0174,-1.582433 2.09583,-8.147151 1.34526,-4.248927 2.98381,-9.451728 3.64122,-11.56178 0.65742,-2.110052 1.24618,-3.888902 1.30835,-3.953001 0.0622,-0.0641 0.29818,0.06859 0.52446,0.29487 0.37216,0.372162 0.11672,1.342509 -2.67738,10.170709 -1.69883,5.367613 -3.32669,10.533203 -3.61746,11.479088 -0.62478,2.032421 -0.80831,2.279613 -1.27502,1.717265 z M 54.523071,69.593719 c -0.43657,-0.381222 -1.92485,-1.736352 -3.3073,-3.0114 -1.38244,-1.275046 -3.10753,-2.855777 -3.83351,-3.512734 -0.72599,-0.656957 -1.24487,-1.269571 -1.15308,-1.361364 0.2003,-0.200301 1.94984,0.499201 2.44848,0.978954 0.19456,0.187196 1.47031,1.363247 2.835,2.613447 1.36468,1.250201 3.00421,2.752185 3.6434,3.337742 0.67133,0.615006 1.08377,1.191469 0.97657,1.364927 -0.28637,0.46336 -0.74296,0.347176 -1.60956,-0.409572 z m 97.095479,3.5e-5 c -0.27971,-0.642996 -0.2502,-0.785824 0.91922,-4.449557 3.94368,-12.355334 5.34104,-16.853278 5.26072,-16.933598 -0.22845,-0.228452 -10.15013,8.449791 -10.2337,8.951162 -0.0981,0.588288 -0.34936,0.781286 5.8821,-4.517508 1.58404,-1.346957 2.99105,-2.449014 3.12669,-2.449014 0.13563,0 0.16987,0.267891 0.0761,0.595313 -0.16845,0.588084 -1.2216,1.696346 -3.07998,3.241146 -4.50462,3.744522 -6.57475,5.596342 -6.57475,5.881403 0,0.184968 0.0801,0.336305 0.17791,0.336305 0.143,0 3.01204,-2.362339 3.52626,-2.903489 0.0728,-0.07657 0.66807,-0.570071 1.32291,-1.096668 0.65485,-0.526597 1.66688,-1.387038 2.24896,-1.91209 1.13841,-1.026869 1.60796,-1.21744 1.35123,-0.548405 -0.0883,0.230183 -0.1606,0.568378 -0.1606,0.751544 0,0.183166 -0.97917,1.155694 -2.17593,2.161173 -1.19676,1.005479 -3.42109,2.872085 -4.94294,4.148014 -2.83729,2.378787 -3.54311,2.617253 -2.98193,1.007467 0.32458,-0.931092 0.26628,-0.969916 -0.60206,-0.400959 -0.57655,0.377774 -0.65147,0.374582 -0.88213,-0.03758 -0.13864,-0.24773 -0.19069,-0.685143 -0.11566,-0.972031 0.12244,-0.468206 0.0751,-0.488804 -0.46234,-0.201175 -0.48079,0.257309 -0.67054,0.248644 -0.96317,-0.04398 -0.30951,-0.309509 -0.10489,-1.758681 1.35787,-9.616975 2.41344,-12.965511 2.19655,-12.030676 2.79121,-12.030676 0.61298,0 0.62449,0.253942 0.12339,2.723133 -0.21287,1.048892 -0.81427,4.228794 -1.33647,7.06645 -2.00691,10.905847 -1.92246,10.290233 -1.34597,9.811789 0.20356,-0.168945 0.63012,-1.70157 0.94792,-3.405835 0.31778,-1.704264 0.98687,-5.301318 1.48686,-7.993454 1.39964,-7.536295 1.4322,-7.672916 1.82845,-7.672916 0.19938,0 0.42907,0.107713 0.51044,0.239363 0.0814,0.13165 -0.27117,2.483135 -0.7834,5.225521 -0.51223,2.742386 -1.11374,5.998188 -1.33669,7.235115 -0.22294,1.236927 -0.52359,2.769457 -0.66811,3.405621 -0.14451,0.636165 -0.21203,1.207382 -0.15004,1.26937 0.31889,0.318899 0.89275,-0.825186 1.16512,-2.322892 0.16911,-0.929852 0.50118,-2.762203 0.73794,-4.07189 0.23676,-1.309688 0.71887,-3.860822 1.07135,-5.669187 0.35248,-1.808365 0.64087,-3.505006 0.64087,-3.770312 0,-0.596228 0.75016,-0.63925 0.97403,-0.05586 0.09,0.234583 -0.16261,2.169348 -0.56139,4.299479 -1.24379,6.64393 -1.73556,9.319461 -1.73556,9.442645 0,0.399547 0.81129,-0.17853 3.63924,-2.593118 1.74694,-1.491589 3.80045,-3.241049 4.56334,-3.88769 0.7629,-0.646641 1.54263,-1.331251 1.73273,-1.521355 0.52972,-0.529716 1.15066,-0.41183 1.31509,0.24967 0.0902,0.362904 -0.6904,3.229268 -1.9995,7.342187 -1.18111,3.710781 -2.78598,8.757725 -3.56638,11.215431 -0.78041,2.457706 -1.52943,4.579069 -1.6645,4.714139 -0.15106,0.151053 -0.32609,0.06051 -0.45474,-0.235222 z m -5.59293,-11.4602 c -0.21693,-0.216921 -0.87965,0.848505 -0.70429,1.132243 0.0888,0.143742 0.31341,-0.02245 0.49904,-0.36931 0.18564,-0.346862 0.278,-0.690182 0.20525,-0.762933 z M 54.729591,67.32701 c -4.73652,-4.381112 -4.77221,-4.420592 -4.00187,-4.426439 0.75163,-0.0057 1.63691,0.658292 4.83065,3.623196 1.79822,1.66937 2.22417,2.456889 1.32887,2.456889 -0.20343,0 -1.17437,-0.744141 -2.15765,-1.653646 z M 159.79855,66.313658 c 0.2119,-0.503962 1.94856,-2.178195 4.55129,-4.387667 4.82915,-4.099507 5.27489,-4.430515 5.65221,-4.197318 0.58873,0.36385 0.1419,0.889552 -2.92962,3.446775 -1.74787,1.455208 -4.07285,3.389973 -5.16663,4.299479 -1.09378,0.909505 -2.09246,1.653645 -2.21929,1.653645 -0.12684,0 -0.0764,-0.366712 0.11204,-0.814914 z m -13.34072,-2.237363 c -0.18262,-0.220052 -0.28531,-0.444706 -0.2282,-0.499232 1.36594,-1.303981 8.32738,-6.949939 8.38077,-6.797079 0.21938,0.628115 -0.68699,1.762938 -2.89936,3.630168 -1.35693,1.145241 -2.70527,2.302243 -2.99631,2.571115 -0.29104,0.268871 -0.84319,0.715267 -1.22701,0.991989 -0.61796,0.445543 -0.73585,0.457337 -1.02989,0.103039 z m 14.30071,-0.934834 c 0.13365,-0.46599 0.27643,-0.867731 0.3173,-0.892758 0.0409,-0.02503 1.65882,-1.388154 3.59543,-3.029174 3.28661,-2.784952 4.30579,-3.345926 4.27286,-2.351864 -0.0105,0.315319 -7.58612,6.840231 -8.16631,7.033628 -0.17034,0.05678 -0.1771,-0.209535 -0.0193,-0.759832 z M 55.990401,62.607995 c 0.35522,-0.663729 0.42723,-0.604781 -1.20275,-0.984657 -1.45749,-0.339676 -2.49412,-0.620689 -10.45104,-2.833102 -2.98318,-0.829468 -5.4764,-1.557693 -5.5405,-1.618277 -0.0641,-0.06058 0.055,-0.280227 0.26458,-0.488097 0.33057,-0.327806 1.51877,-0.0654 8.95665,1.978027 4.71654,1.295784 8.66049,2.493437 8.76433,2.66145 0.14231,0.230269 0.23583,0.229364 0.37986,-0.0037 0.18682,-0.302287 0.65877,-0.525444 1.98967,-0.940804 0.59049,-0.184287 0.62166,-0.160335 0.29833,0.229253 -0.19858,0.239272 -0.52506,0.43504 -0.72553,0.43504 -0.20046,0 -0.36448,0.119062 -0.36448,0.264583 0,0.145521 -0.15631,0.264584 -0.34737,0.264584 -0.19106,0 -0.68958,0.357187 -1.10783,0.79375 -0.88038,0.918914 -1.34157,1.040996 -0.91392,0.241922 z m 4.84386,-2.885622 c -2.67859,-2.401825 -3.25427,-3.142103 -3.26487,-4.198423 -0.002,-0.197908 1.21527,0.754592 2.70503,2.116666 1.48976,1.362074 3.06596,2.801048 3.50266,3.197719 0.70768,0.642791 0.75063,0.76461 0.39502,1.12022 -0.35561,0.355609 -0.71858,0.112435 -3.33784,-2.236182 z m 3.72169,0.97999 c -0.15722,-0.176366 -2.02331,-1.916397 -4.14687,-3.866736 -2.12356,-1.950338 -3.92807,-3.795807 -4.01001,-4.101041 -0.41859,-1.559215 -0.58385,-1.681252 6.28921,4.644121 0.8934,0.82221 1.66055,1.460716 1.70477,1.418902 0.29428,-0.278247 -1.39648,-2.146464 -4.33449,-4.789438 -4.6367,-4.17108 -4.79652,-4.342986 -5.01563,-5.395082 -0.18832,-0.90425 -0.14506,-0.878166 2.42232,1.460502 1.43774,1.309658 2.84145,2.557407 3.11936,2.772776 0.48492,0.375794 0.49025,0.362872 0.13229,-0.320526 -0.44465,-0.848887 -6.68118,-6.68939 -6.79105,-6.3598 -0.0419,0.125764 0.70989,2.482768 1.67068,5.237785 2.89615,8.304554 2.8811,8.25218 2.50323,8.707478 -0.41462,0.499586 -1.02863,0.508925 -2.31457,0.0352 -0.54865,-0.202115 -2.42629,-0.7512 -4.17254,-1.22019 -2.91979,-0.784168 -6.03975,-1.646663 -10.02622,-2.771695 -1.43246,-0.404259 -1.5249,-0.474778 -1.13434,-0.865338 0.47532,-0.475323 0.33401,-0.499584 5.7366,0.98488 1.67349,0.459823 3.87615,1.059507 4.89479,1.332631 1.01865,0.273123 2.7305,0.745951 3.80412,1.050728 1.07361,0.304776 2.0011,0.505063 2.06109,0.445082 0.06,-0.05998 -0.47933,-1.761255 -1.19845,-3.780608 -2.58489,-7.258516 -3.74072,-10.731612 -3.74072,-11.240369 0,-1.071146 0.80695,-0.86714 2.33663,0.590732 0.82491,0.786182 1.96125,1.844433 2.52521,2.351671 1.19177,1.071911 1.16014,0.986226 -0.96347,-2.610312 -0.71758,-1.215304 -1.20367,-2.304738 -1.08018,-2.420965 0.12349,-0.116226 1.59374,-0.942924 3.26723,-1.837108 2.50854,-1.340368 3.22851,-1.612094 4.10104,-1.547785 1.04518,0.07703 1.01474,0.10103 -2.44845,1.930086 -2.58002,1.362619 -3.46899,1.956969 -3.36377,2.248958 0.42489,1.179076 5.07908,8.532197 5.62824,8.892025 0.35531,0.232804 0.58824,0.321634 0.51763,0.197399 -0.58295,-1.025683 -3.15573,-5.352564 -4.08057,-6.862673 -0.63133,-1.03086 -1.14787,-1.983359 -1.14786,-2.116666 0,-0.133307 1.73238,-1.171664 3.84973,-2.307461 3.25328,-1.74513 4.01314,-2.05258 4.90435,-1.984375 1.03218,0.07899 0.96719,0.127603 -3.05599,2.285578 -2.26083,1.212677 -4.1106,2.296424 -4.1106,2.408326 0,0.399769 7.10983,12.075139 7.65215,12.565924 0.94533,0.855517 0.83154,0.340933 -0.34865,-1.576656 -2.72752,-4.431702 -6.24517,-10.442773 -6.24517,-10.671944 0,-0.277801 1.59875,-1.218406 5.98232,-3.519621 3.32589,-1.745969 4.80169,-1.983499 6.37258,-1.025665 1.35191,0.824313 1.72898,1.617454 1.62587,3.419955 -0.0496,0.866728 -0.0306,1.560368 0.0421,1.541424 0.64388,-0.167648 1.91841,0.464203 2.51555,1.247084 0.98472,1.291037 1.10179,2.661799 0.33896,3.968939 -0.49102,0.841376 -1.18105,1.353535 -3.64826,2.707827 -1.67349,0.918605 -3.1788,1.67206 -3.34513,1.674344 -0.16633,0.0023 -0.36866,-0.168459 -0.44962,-0.379428 -0.16153,-0.420942 0.20198,-0.668611 3.88587,-2.647604 1.88716,-1.013778 2.41276,-1.431016 2.71553,-2.155663 0.76631,-1.834017 -0.87057,-3.747708 -2.82613,-3.304055 -0.49861,0.113119 -2.14972,0.881971 -3.66913,1.708561 -2.32821,1.266592 -2.8191,1.446356 -3.12213,1.143325 -0.45971,-0.45971 -0.35604,-0.542652 2.7097,-2.167912 3.12959,-1.659106 3.83646,-2.323314 3.83646,-3.604902 0,-1.445689 -0.8788,-2.361444 -2.4344,-2.536783 -1.1474,-0.129329 -1.48128,9.05e-4 -5.18895,2.024017 l -3.96265,2.162241 1.65128,2.830657 c 0.90821,1.556861 2.34175,3.961751 3.18565,5.344199 2.43156,3.983308 2.47876,4.061633 2.92437,4.852526 0.56116,0.995996 0.33581,1.561586 -0.53512,1.342998 -0.50928,-0.127822 -0.66727,-0.06517 -0.66727,0.264633 0,0.237659 -0.27757,0.537641 -0.61684,0.666628 -0.33926,0.128987 -0.96395,0.60229 -1.3882,1.051785 -0.85904,0.910159 -0.91799,0.93138 -1.32353,0.47647 z m 0.79171,-4.125346 c -0.25946,-0.439235 -0.81669,-1.053641 -1.2383,-1.365345 l -0.76655,-0.566736 0.46697,0.751714 c 0.59743,0.961746 1.75375,2.234863 1.89842,2.090189 0.0612,-0.06117 -0.10107,-0.470588 -0.36054,-0.909822 z m 75.126459,2.476768 c -0.0848,-0.221029 0.0975,-1.804307 0.40518,-3.518396 0.61883,-3.447696 0.67883,-4.086028 0.33279,-3.540467 -0.16803,0.264917 -0.59484,0.120288 -1.84803,-0.626236 -1.65856,-0.987999 -1.93129,-1.338844 -1.24537,-1.602056 0.41483,-0.159183 3.05542,1.162223 3.05542,1.528993 0,0.122393 0.0993,0.222533 0.22071,0.222533 0.12139,0 0.42602,-1.101328 0.67696,-2.447396 1.16456,-6.24688 1.76602,-9.801821 1.69421,-10.013702 -0.0431,-0.127141 -0.97769,0.392172 -2.07689,1.154029 -7.04375,4.882036 -10.27044,7.264485 -10.38664,7.669048 -0.0731,0.254662 -0.0727,0.463021 0.001,0.463021 0.0737,0 2.35452,-1.58321 5.06846,-3.518244 2.71394,-1.935034 5.33072,-3.795255 5.81507,-4.133825 l 0.88063,-0.61558 -0.0869,0.738994 c -0.0896,0.762296 -0.49335,1.077802 -9.60687,7.507981 -1.53073,1.080035 -2.78316,2.121832 -2.78316,2.315104 0,0.193272 0.0692,0.351403 0.1538,0.351403 0.0846,0 1.12639,-0.696651 2.31511,-1.548114 10.1363,-7.260502 9.94278,-7.134081 9.61557,-6.281388 -0.098,0.255447 -0.17823,0.56791 -0.17823,0.694363 0,0.183289 -10.82348,8.073669 -12.10705,8.826114 -0.36591,0.214498 -1.39141,-0.0271 -1.34999,-0.318036 0.0792,-0.556314 -0.12174,-0.716343 -0.8966,-0.714038 -0.73001,0.0022 -0.85065,-0.08582 -0.79868,-0.582561 0.0441,-0.421277 -0.0485,-0.543003 -0.33073,-0.434713 -0.21557,0.08272 -0.39195,0.26501 -0.39195,0.405083 0,0.140073 -0.26789,0.216631 -0.59531,0.17013 -0.72627,-0.103147 -0.76959,0.190152 0.89183,-6.037673 1.75546,-6.580376 1.76772,-6.614583 2.36984,-6.614583 0.27975,0 0.50752,0.0893 0.50614,0.198437 -0.001,0.109141 -0.59275,2.395112 -1.31416,5.079936 -0.72141,2.684823 -1.26399,4.929168 -1.20572,4.987431 0.0583,0.05826 0.23135,0.02842 0.38464,-0.06632 0.28816,-0.178097 0.379,-0.471879 2.02884,-6.561465 0.92555,-3.416258 1.02515,-3.638021 1.63391,-3.638021 0.51159,0 0.60922,0.09763 0.46302,0.463021 -0.18606,0.465038 -0.65457,2.122416 -1.36496,4.828646 -0.99052,3.773376 -0.96293,3.548568 -0.39232,3.195912 0.19124,-0.118193 0.84942,-2.046485 1.46261,-4.285092 0.98683,-3.602649 1.1827,-4.080058 1.70514,-4.156052 0.67236,-0.0978 0.71093,-0.416593 -0.49851,4.120752 -0.39759,1.491589 -0.64719,2.710988 -0.55467,2.709777 0.0925,-0.0012 1.41838,-0.899207 2.94635,-1.995546 1.52797,-1.096338 3.25438,-2.303153 3.83646,-2.68181 0.58208,-0.378657 1.49219,-1.028474 2.02245,-1.444037 0.82391,-0.645694 1.20211,-0.755571 2.60071,-0.755571 h 1.63659 l -0.15213,0.727604 c -0.0837,0.400182 -0.92979,4.954323 -1.88025,10.120312 -0.95046,5.16599 -1.7807,9.541537 -1.84496,9.723438 -0.16127,0.456467 -0.64688,0.415015 -0.83344,-0.07114 z m -10.8244,-10.152382 c -0.18791,-0.187905 -0.91511,0.735765 -0.90223,1.145969 0.005,0.154087 0.24595,-0.0046 0.53579,-0.352635 0.28984,-0.348037 0.45473,-0.705037 0.36644,-0.793334 z m -74.850739,9.249673 c -0.26313,-0.425766 -4.37696,-12.300148 -4.37696,-12.63392 0,-0.443244 0.52606,-0.722531 0.81559,-0.433001 0.13217,0.13217 1.06407,2.616155 2.0709,5.519967 1.00683,2.903813 2.01941,5.800644 2.25018,6.437403 0.23077,0.63676 0.41958,1.202306 0.41958,1.256771 0,0.213761 -1.03613,0.08441 -1.17929,-0.14722 z m -2.20239,-0.613649 c -0.14932,-0.181901 -0.56409,-1.223698 -0.92173,-2.315104 -0.35764,-1.091407 -1.15026,-3.392203 -1.76138,-5.11288 -0.87839,-2.473207 -1.04556,-3.207519 -0.79806,-3.505729 0.49594,-0.597576 0.66959,-0.460294 1.11255,0.879546 0.22852,0.691224 1.12783,3.310599 1.99847,5.820834 1.3728,3.958122 1.52048,4.564062 1.1123,4.564062 -0.25887,0 -0.59284,-0.148828 -0.74215,-0.330729 z m 16.5792,-1.84975 c -0.61383,-1.056309 -2.40953,-4.063688 -3.99045,-6.683063 -3.3453,-5.542706 -3.53106,-4.594544 1.41253,-7.209895 1.71917,-0.909505 3.36016,-1.653646 3.64666,-1.653646 0.2865,0 0.84388,0.277815 1.23863,0.617366 0.85387,0.734465 0.95066,2.125337 0.18868,2.711246 -1.04352,0.802385 -5.9378,3.296301 -6.17783,3.147955 -0.77793,-0.480789 0.0333,-1.108172 4.02813,-3.115165 0.53688,-0.269731 1.11575,-0.658625 1.28637,-0.864208 0.44073,-0.531048 0.11083,-1.174721 -0.60058,-1.171795 -0.58039,0.0024 -6.15986,2.887787 -6.15986,3.185547 0,0.07993 1.30968,2.341791 2.91041,5.026366 4.84438,8.124475 4.44678,7.333972 3.84952,7.653614 -0.45867,0.245476 -0.64045,0.06235 -1.63221,-1.644322 z m 2.14832,0.625752 c 0,-0.456732 1.12756,-1.175834 4.54329,-2.897482 1.13062,-0.569869 2.84186,-2.144416 3.3135,-3.048826 0.60136,-1.153136 0.89201,-2.873086 0.5544,-3.280736 -0.46201,-0.557858 -0.60382,-0.375054 -0.65897,0.84943 -0.0958,2.126846 -1.38802,3.733549 -4.18035,5.197688 -0.87312,0.457817 -2.10954,1.121678 -2.74759,1.475248 -1.16606,0.646159 -1.88496,0.656317 -1.87988,0.02656 0.002,-0.186468 1.2219,-0.978478 2.71198,-1.760022 2.86077,-1.500467 3.97349,-2.356383 4.58495,-3.526809 0.43389,-0.830543 0.48754,-2.52235 0.11136,-3.51178 -0.32434,-0.853084 -1.48566,-1.955143 -2.2669,-2.151222 -0.50279,-0.126193 -0.60143,-0.364959 -0.69709,-1.687538 -0.0839,-1.160326 -0.29063,-1.775487 -0.83749,-2.492457 l -0.72606,-0.95191 h 0.77679 c 1.02285,0 1.69499,1.024483 1.84325,2.809516 0.10274,1.237014 0.19092,1.391709 1.01807,1.78615 0.88542,0.422229 0.89928,0.420057 0.62227,-0.09754 -0.15583,-0.291159 -0.38285,-0.52938 -0.5045,-0.52938 -0.12166,0 -0.30318,-0.625078 -0.40339,-1.389063 -0.10021,-0.763984 -0.35642,-1.656953 -0.56935,-1.984375 -0.37827,-0.581654 -0.36357,-0.595312 0.64112,-0.595312 h 1.02828 l 0.3413,1.608283 c 0.18772,0.884555 0.55721,1.866821 0.8211,2.182812 0.58649,0.702279 0.60348,0.463958 0.10053,-1.409845 -0.51557,-1.920826 -0.50024,-2.38125 0.0793,-2.38125 0.37564,0 0.62596,0.532997 1.18583,2.524899 0.79114,2.814767 1.52261,3.960244 3.2665,5.115351 2.18761,1.449011 5.62975,1.736321 8.1684,0.681803 2.82058,-1.17163 4.7184,-3.891111 4.7184,-6.761223 0,-1.331183 0.0706,-1.56083 0.48003,-1.56083 1.05779,0 0.9529,2.877046 -0.19027,5.218707 -0.79639,1.631331 -2.33055,3.04614 -4.3467,4.008534 -1.27148,0.606929 -1.79036,0.694634 -4.10962,0.694634 -2.98796,0 -4.20177,-0.382945 -6.13927,-1.936891 l -1.12077,-0.898893 0.26404,0.757437 c 0.31162,0.893897 2.27379,2.090712 4.32171,2.636001 6.17742,1.644829 12.68982,-2.803313 12.72605,-8.692222 0.0103,-1.670606 0.049,-1.784656 0.60629,-1.785938 0.54661,-0.0013 0.59532,0.119776 0.59532,1.479264 0,3.278682 -1.7782,6.5366 -4.58437,8.399227 -2.04485,1.357297 -3.37204,1.788294 -6.01356,1.952877 -2.51923,0.156963 -4.58491,-0.284215 -6.48499,-1.385035 l -1.07563,-0.623168 -0.48143,1.416352 c -0.70094,2.062121 -2.28256,3.523961 -5.8675,5.423134 -1.65305,0.875726 -3.12542,1.59223 -3.27195,1.59223 -0.14652,0 -0.26641,-0.223377 -0.26641,-0.496394 z M 137.34558,54.43295 c -1.45084,-0.849347 -2.6752,-1.656173 -2.72079,-1.792946 -0.0456,-0.136773 0.072,-0.377189 0.26121,-0.534259 0.49204,-0.408351 5.75894,2.71519 5.75894,3.415341 0,0.73844 -0.41046,0.603069 -3.29936,-1.088136 z m 1.31499,-1.359612 c -2.34994,-1.348821 -2.78875,-1.750543 -2.26555,-2.074013 0.69324,-0.428595 4.5145,1.80501 4.5145,2.638817 0,0.696299 -0.0922,0.673147 -2.24895,-0.564804 z m -7.53297,0.571819 c -0.21406,-0.13538 -0.33313,-0.30001 -0.26458,-0.365845 0.16395,-0.15747 5.73661,-4.152428 7.92984,-5.684788 0.94588,-0.660869 2.04575,-1.438935 2.44414,-1.729034 0.86153,-0.627342 1.104,-0.48814 0.75386,0.432789 -0.15511,0.407965 -1.28158,1.384434 -2.85167,2.471941 -1.42741,0.988676 -3.62411,2.547202 -4.88156,3.46339 -2.40924,1.755398 -2.51261,1.802015 -3.13003,1.411547 z M 68.538821,51.771149 c -0.27721,-0.448535 0.21866,-0.835193 3.03012,-2.362767 1.86032,-1.010787 2.66558,-1.592783 2.66558,-1.926533 0,-0.26302 -0.17279,-0.544524 -0.38398,-0.625565 -0.33032,-0.126759 -3.83753,1.582926 -5.62365,2.74141 -0.65437,0.424426 -1.20721,0.228116 -1.08462,-0.385146 0.10797,-0.540107 5.12111,-3.265894 6.32249,-3.437717 0.80571,-0.115233 1.03682,-0.02554 1.52136,0.590449 1.18283,1.503725 0.65165,2.230056 -3.0893,4.224288 -2.90421,1.54818 -3.09084,1.61385 -3.358,1.181581 z m 55.108769,-1.198951 c -0.0837,-0.08371 -0.0379,-0.530198 0.10187,-0.992187 1.02632,-3.393057 1.76636,-6.659168 1.54047,-6.798774 -0.60351,-0.372994 -7.48542,-1.865968 -7.68423,-1.667032 -0.11954,0.119621 -0.65756,1.854602 -1.19559,3.855514 -0.92574,3.442788 -1.32994,4.177098 -1.84263,3.347551 -0.0987,-0.159757 0.39774,-2.421945 1.10328,-5.027083 l 1.28279,-4.736614 h 1.86374 c 1.11626,0 2.90954,0.265289 4.47129,0.661458 3.03136,0.768967 3.06886,0.772743 3.06886,0.308928 0,-0.20593 -0.52263,-0.465849 -1.25677,-0.625026 l -1.25677,-0.272494 2.05052,-0.03643 c 1.12779,-0.02004 2.05052,0.01894 2.05052,0.08661 0,0.06768 -0.16753,0.633222 -0.37229,1.256771 -0.20475,0.623549 -0.94087,3.306616 -1.6358,5.962371 -0.99473,3.801455 -1.35643,4.828646 -1.70028,4.828646 -0.24023,0 -0.50526,-0.06849 -0.58898,-0.152209 z m 2.18068,-9.352758 c 0,-0.134503 -1.6371,-0.626033 -3.63802,-1.092291 -2.00091,-0.466257 -3.69755,-0.862225 -3.77031,-0.879929 -0.0728,-0.0177 -0.19182,0.08687 -0.26458,0.232395 -0.0748,0.149499 1.24871,0.625587 3.04271,1.094548 3.33483,0.871746 4.6302,1.052273 4.6302,0.645277 z m -13.22916,6.519485 c 0,-0.282222 1.79936,-7.183851 2.27405,-8.722331 0.15694,-0.508663 1.16553,-0.64667 1.16553,-0.159483 0,0.166946 -0.53578,2.25227 -1.19062,4.634053 -0.65485,2.381783 -1.19063,4.388316 -1.19063,4.458962 0,0.07065 -0.23812,0.128447 -0.52917,0.128447 -0.29104,0 -0.52916,-0.152842 -0.52916,-0.339648 z m -10.84792,-4.555144 c 0,-4.453819 0.0202,-4.630208 0.52917,-4.630208 0.509,0 0.52916,0.176389 0.52916,4.630208 0,4.45382 -0.0202,4.630208 -0.52916,4.630208 -0.50901,0 -0.52917,-0.176388 -0.52917,-4.630208 z m 1.85208,0 c 0,-4.453819 0.0202,-4.630208 0.52917,-4.630208 0.50901,0 0.52917,0.176389 0.52917,4.630208 0,4.45382 -0.0202,4.630208 -0.52917,4.630208 -0.50901,0 -0.52917,-0.176388 -0.52917,-4.630208 z m 1.85209,0 v -4.630208 h 0.68976 c 0.52028,0 0.65031,0.102839 0.52917,0.418515 -0.0883,0.230183 -0.1606,2.313776 -0.1606,4.630208 0,4.035305 -0.0222,4.211693 -0.52917,4.211693 -0.509,0 -0.52916,-0.176388 -0.52916,-4.630208 z m 1.85396,1.785938 c 0.001,-1.564349 0.0778,-3.647943 0.17055,-4.630209 0.14191,-1.502545 0.24657,-1.785937 0.65958,-1.785937 0.45539,0 0.49091,0.275198 0.49091,3.803385 0,4.537355 -0.13935,5.457031 -0.82682,5.457031 -0.45443,0 -0.49594,-0.238926 -0.49422,-2.84427 z m 3.43019,2.38125 c -0.004,-0.109141 0.50188,-2.132471 1.12448,-4.496289 1.03865,-3.943466 1.18108,-4.297985 1.72731,-4.299479 0.32742,-8.95e-4 0.59531,0.03761 0.59531,0.08556 0,0.04796 -0.40471,1.566003 -0.89935,3.373438 -0.49464,1.807435 -1.03501,3.792261 -1.20082,4.410725 -0.22474,0.838257 -0.43357,1.124479 -0.82045,1.124479 -0.28543,0 -0.52235,-0.0893 -0.52648,-0.198437 z m -1.55397,-0.30905 c -0.30799,-0.194999 -0.18218,-0.921862 0.74219,-4.287967 0.61218,-2.229241 1.1558,-4.095909 1.20804,-4.148151 0.0522,-0.05224 0.32308,-0.0556 0.60187,-0.0075 0.4813,0.08311 0.45783,0.267783 -0.46518,3.6594 -0.53464,1.964531 -1.05244,3.899296 -1.15067,4.299479 -0.19044,0.775834 -0.34777,0.857285 -0.93625,0.4847 z m -22.741349,-0.30049 c -1.60394,-0.323196 -3.36289,-1.418369 -4.2542,-2.648795 -0.60278,-0.832111 -1.87005,-4.475957 -1.87005,-5.377044 0,-0.109351 0.26247,-0.160775 0.58327,-0.114273 0.49131,0.07122 0.66438,0.41406 1.09768,2.174416 0.42262,1.716925 0.69517,2.27062 1.5273,3.102755 1.34501,1.345013 2.57124,1.81936 4.69542,1.816352 3.46449,-0.0049 6.11925,-2.436803 6.11925,-5.605567 0,-1.329148 0.0672,-1.5357 0.49972,-1.5357 1.1362,0 0.90483,3.101209 -0.3786,5.074635 -1.50489,2.313935 -5.08649,3.704287 -8.01979,3.113221 z m -0.12692,-1.882067 c -1.59847,-0.446567 -2.95601,-1.926786 -3.47793,-3.792247 -0.24429,-0.873125 -0.50239,-1.79586 -0.57357,-2.050521 -0.0967,-0.346165 0.0272,-0.463021 0.49128,-0.463021 0.54642,0 0.67756,0.220783 1.09604,1.845293 0.53933,2.093583 1.33329,2.975646 3.10878,3.453737 2.15329,0.579821 4.93703,-0.860188 5.42555,-2.806598 0.0886,-0.352982 0.11247,-1.05818 0.0531,-1.567108 -0.0947,-0.810976 -0.0357,-0.925324 0.47705,-0.925324 1.31311,0 0.97798,3.128092 -0.50552,4.718492 -1.3712,1.470003 -4.03309,2.163261 -6.09473,1.587297 z"
       id="path56" />
  </g>
</svg>
